<svg width="1920" height="13622" viewBox="0 0 1920 13622" fill="none" xmlns="http://www.w3.org/2000/svg">
<rect width="1920" height="13622" fill="white"/>
<circle cx="54.1288" cy="1371.46" r="3.45689" transform="rotate(90 54.1288 1371.46)" fill="#BEC3CC"/>
<circle cx="33.3866" cy="1371.46" r="3.45689" transform="rotate(90 33.3866 1371.46)" fill="#BEC3CC"/>
<circle cx="12.6483" cy="1371.46" r="3.45689" transform="rotate(90 12.6483 1371.46)" fill="#BEC3CC"/>
<circle cx="54.1288" cy="1578.87" r="3.45689" transform="rotate(90 54.1288 1578.87)" fill="#BEC3CC"/>
<circle cx="33.3866" cy="1578.87" r="3.45689" transform="rotate(90 33.3866 1578.87)" fill="#BEC3CC"/>
<circle cx="12.6483" cy="1578.87" r="3.45689" transform="rotate(90 12.6483 1578.87)" fill="#BEC3CC"/>
<circle cx="54.1288" cy="1475.16" r="3.45689" transform="rotate(90 54.1288 1475.16)" fill="#BEC3CC"/>
<circle cx="33.3866" cy="1475.16" r="3.45689" transform="rotate(90 33.3866 1475.16)" fill="#BEC3CC"/>
<circle cx="12.6483" cy="1475.16" r="3.45689" transform="rotate(90 12.6483 1475.16)" fill="#BEC3CC"/>
<circle cx="54.1288" cy="1682.58" r="3.45689" transform="rotate(90 54.1288 1682.58)" fill="#BEC3CC"/>
<circle cx="33.3866" cy="1682.58" r="3.45689" transform="rotate(90 33.3866 1682.58)" fill="#BEC3CC"/>
<circle cx="12.6483" cy="1682.58" r="3.45689" transform="rotate(90 12.6483 1682.58)" fill="#BEC3CC"/>
<circle cx="54.1288" cy="1392.2" r="3.45689" transform="rotate(90 54.1288 1392.2)" fill="#BEC3CC"/>
<circle cx="33.3866" cy="1392.2" r="3.45689" transform="rotate(90 33.3866 1392.2)" fill="#BEC3CC"/>
<circle cx="12.6483" cy="1392.2" r="3.45689" transform="rotate(90 12.6483 1392.2)" fill="#BEC3CC"/>
<circle cx="54.1288" cy="1599.62" r="3.45689" transform="rotate(90 54.1288 1599.62)" fill="#BEC3CC"/>
<circle cx="33.3866" cy="1599.61" r="3.45689" transform="rotate(90 33.3866 1599.61)" fill="#BEC3CC"/>
<circle cx="12.6483" cy="1599.61" r="3.45689" transform="rotate(90 12.6483 1599.61)" fill="#BEC3CC"/>
<circle cx="54.1288" cy="1495.91" r="3.45689" transform="rotate(90 54.1288 1495.91)" fill="#BEC3CC"/>
<circle cx="33.3866" cy="1495.9" r="3.45689" transform="rotate(90 33.3866 1495.9)" fill="#BEC3CC"/>
<circle cx="12.6483" cy="1495.9" r="3.45689" transform="rotate(90 12.6483 1495.9)" fill="#BEC3CC"/>
<circle cx="54.1288" cy="1703.32" r="3.45689" transform="rotate(90 54.1288 1703.32)" fill="#BEC3CC"/>
<circle cx="33.3866" cy="1703.32" r="3.45689" transform="rotate(90 33.3866 1703.32)" fill="#BEC3CC"/>
<circle cx="12.6483" cy="1703.32" r="3.45689" transform="rotate(90 12.6483 1703.32)" fill="#BEC3CC"/>
<circle cx="54.1288" cy="1412.94" r="3.45689" transform="rotate(90 54.1288 1412.94)" fill="#BEC3CC"/>
<circle cx="33.3866" cy="1412.94" r="3.45689" transform="rotate(90 33.3866 1412.94)" fill="#BEC3CC"/>
<circle cx="12.6483" cy="1412.94" r="3.45689" transform="rotate(90 12.6483 1412.94)" fill="#BEC3CC"/>
<circle cx="54.1288" cy="1620.35" r="3.45689" transform="rotate(90 54.1288 1620.35)" fill="#BEC3CC"/>
<circle cx="33.3866" cy="1620.35" r="3.45689" transform="rotate(90 33.3866 1620.35)" fill="#BEC3CC"/>
<circle cx="12.6483" cy="1620.35" r="3.45689" transform="rotate(90 12.6483 1620.35)" fill="#BEC3CC"/>
<circle cx="54.1288" cy="1516.65" r="3.45689" transform="rotate(90 54.1288 1516.65)" fill="#BEC3CC"/>
<circle cx="33.3866" cy="1516.65" r="3.45689" transform="rotate(90 33.3866 1516.65)" fill="#BEC3CC"/>
<circle cx="12.6483" cy="1516.65" r="3.45689" transform="rotate(90 12.6483 1516.65)" fill="#BEC3CC"/>
<circle cx="54.1288" cy="1724.06" r="3.45689" transform="rotate(90 54.1288 1724.06)" fill="#BEC3CC"/>
<circle cx="33.3866" cy="1724.06" r="3.45689" transform="rotate(90 33.3866 1724.06)" fill="#BEC3CC"/>
<circle cx="12.6483" cy="1724.06" r="3.45689" transform="rotate(90 12.6483 1724.06)" fill="#BEC3CC"/>
<circle cx="54.1288" cy="1433.68" r="3.45689" transform="rotate(90 54.1288 1433.68)" fill="#BEC3CC"/>
<circle cx="33.3866" cy="1433.68" r="3.45689" transform="rotate(90 33.3866 1433.68)" fill="#BEC3CC"/>
<circle cx="12.6483" cy="1433.68" r="3.45689" transform="rotate(90 12.6483 1433.68)" fill="#BEC3CC"/>
<circle cx="54.1288" cy="1641.09" r="3.45689" transform="rotate(90 54.1288 1641.09)" fill="#BEC3CC"/>
<circle cx="33.3866" cy="1641.09" r="3.45689" transform="rotate(90 33.3866 1641.09)" fill="#BEC3CC"/>
<circle cx="12.6483" cy="1641.09" r="3.45689" transform="rotate(90 12.6483 1641.09)" fill="#BEC3CC"/>
<circle cx="54.1288" cy="1537.39" r="3.45689" transform="rotate(90 54.1288 1537.39)" fill="#BEC3CC"/>
<circle cx="33.3866" cy="1537.39" r="3.45689" transform="rotate(90 33.3866 1537.39)" fill="#BEC3CC"/>
<circle cx="12.6483" cy="1537.39" r="3.45689" transform="rotate(90 12.6483 1537.39)" fill="#BEC3CC"/>
<circle cx="54.1288" cy="1744.8" r="3.45689" transform="rotate(90 54.1288 1744.8)" fill="#BEC3CC"/>
<circle cx="33.3866" cy="1744.8" r="3.45689" transform="rotate(90 33.3866 1744.8)" fill="#BEC3CC"/>
<circle cx="12.6444" cy="1744.8" r="3.45689" transform="rotate(90 12.6444 1744.8)" fill="#BEC3CC"/>
<circle cx="54.1288" cy="1454.42" r="3.45689" transform="rotate(90 54.1288 1454.42)" fill="#BEC3CC"/>
<circle cx="33.3866" cy="1454.42" r="3.45689" transform="rotate(90 33.3866 1454.42)" fill="#BEC3CC"/>
<circle cx="12.6483" cy="1454.42" r="3.45689" transform="rotate(90 12.6483 1454.42)" fill="#BEC3CC"/>
<circle cx="54.1288" cy="1661.83" r="3.45689" transform="rotate(90 54.1288 1661.83)" fill="#BEC3CC"/>
<circle cx="33.3866" cy="1661.83" r="3.45689" transform="rotate(90 33.3866 1661.83)" fill="#BEC3CC"/>
<circle cx="12.6483" cy="1661.83" r="3.45689" transform="rotate(90 12.6483 1661.83)" fill="#BEC3CC"/>
<circle cx="54.1288" cy="1558.13" r="3.45689" transform="rotate(90 54.1288 1558.13)" fill="#BEC3CC"/>
<circle cx="33.3866" cy="1558.13" r="3.45689" transform="rotate(90 33.3866 1558.13)" fill="#BEC3CC"/>
<circle cx="12.6483" cy="1558.13" r="3.45689" transform="rotate(90 12.6483 1558.13)" fill="#BEC3CC"/>
<circle cx="54.1288" cy="1765.54" r="3.45689" transform="rotate(90 54.1288 1765.54)" fill="#BEC3CC"/>
<circle cx="33.3866" cy="1765.54" r="3.45689" transform="rotate(90 33.3866 1765.54)" fill="#BEC3CC"/>
<circle cx="12.6483" cy="1765.54" r="3.45689" transform="rotate(90 12.6483 1765.54)" fill="#BEC3CC"/>
</svg>
