<svg width="401" height="194" viewBox="0 0 401 194" fill="none" xmlns="http://www.w3.org/2000/svg">
<g opacity="0.3">
<circle cx="397.543" cy="190.129" r="3.45689" transform="rotate(-180 397.543 190.129)" fill="#BEC3CC"/>
<circle cx="397.543" cy="169.387" r="3.45689" transform="rotate(-180 397.543 169.387)" fill="#BEC3CC"/>
<circle cx="397.543" cy="148.649" r="3.45689" transform="rotate(-180 397.543 148.649)" fill="#BEC3CC"/>
<circle cx="397.543" cy="127.906" r="3.45689" transform="rotate(-180 397.543 127.906)" fill="#BEC3CC"/>
<circle cx="397.543" cy="107.164" r="3.45689" transform="rotate(-180 397.543 107.164)" fill="#BEC3CC"/>
<circle cx="397.543" cy="86.4225" r="3.45689" transform="rotate(-180 397.543 86.4225)" fill="#BEC3CC"/>
<circle cx="397.543" cy="65.6798" r="3.45689" transform="rotate(-180 397.543 65.6798)" fill="#BEC3CC"/>
<circle cx="397.543" cy="44.9416" r="3.45689" transform="rotate(-180 397.543 44.9416)" fill="#BEC3CC"/>
<circle cx="397.543" cy="24.1994" r="3.45689" transform="rotate(-180 397.543 24.1994)" fill="#BEC3CC"/>
<circle cx="397.543" cy="3.45718" r="3.45689" transform="rotate(-180 397.543 3.45718)" fill="#BEC3CC"/>
<circle cx="190.129" cy="190.129" r="3.45689" transform="rotate(-180 190.129 190.129)" fill="#BEC3CC"/>
<circle cx="190.132" cy="169.387" r="3.45689" transform="rotate(-180 190.132 169.387)" fill="#BEC3CC"/>
<circle cx="190.132" cy="148.649" r="3.45689" transform="rotate(-180 190.132 148.649)" fill="#BEC3CC"/>
<circle cx="190.132" cy="127.906" r="3.45689" transform="rotate(-180 190.132 127.906)" fill="#BEC3CC"/>
<circle cx="190.132" cy="107.164" r="3.45689" transform="rotate(-180 190.132 107.164)" fill="#BEC3CC"/>
<circle cx="190.132" cy="86.4225" r="3.45689" transform="rotate(-180 190.132 86.4225)" fill="#BEC3CC"/>
<circle cx="190.132" cy="65.6798" r="3.45689" transform="rotate(-180 190.132 65.6798)" fill="#BEC3CC"/>
<circle cx="190.132" cy="44.9416" r="3.45689" transform="rotate(-180 190.132 44.9416)" fill="#BEC3CC"/>
<circle cx="190.132" cy="24.1994" r="3.45689" transform="rotate(-180 190.132 24.1994)" fill="#BEC3CC"/>
<circle cx="190.132" cy="3.45718" r="3.45689" transform="rotate(-180 190.132 3.45718)" fill="#BEC3CC"/>
<circle cx="293.836" cy="190.129" r="3.45689" transform="rotate(-180 293.836 190.129)" fill="#BEC3CC"/>
<circle cx="293.836" cy="169.387" r="3.45689" transform="rotate(-180 293.836 169.387)" fill="#BEC3CC"/>
<circle cx="293.836" cy="148.649" r="3.45689" transform="rotate(-180 293.836 148.649)" fill="#BEC3CC"/>
<circle cx="293.836" cy="127.906" r="3.45689" transform="rotate(-180 293.836 127.906)" fill="#BEC3CC"/>
<circle cx="293.836" cy="107.164" r="3.45689" transform="rotate(-180 293.836 107.164)" fill="#BEC3CC"/>
<circle cx="293.836" cy="86.4225" r="3.45689" transform="rotate(-180 293.836 86.4225)" fill="#BEC3CC"/>
<circle cx="293.836" cy="65.6798" r="3.45689" transform="rotate(-180 293.836 65.6798)" fill="#BEC3CC"/>
<circle cx="293.836" cy="44.9416" r="3.45689" transform="rotate(-180 293.836 44.9416)" fill="#BEC3CC"/>
<circle cx="293.836" cy="24.1994" r="3.45689" transform="rotate(-180 293.836 24.1994)" fill="#BEC3CC"/>
<circle cx="293.836" cy="3.45718" r="3.45689" transform="rotate(-180 293.836 3.45718)" fill="#BEC3CC"/>
<circle cx="86.4228" cy="190.129" r="3.45689" transform="rotate(-180 86.4228 190.129)" fill="#BEC3CC"/>
<circle cx="86.4233" cy="169.387" r="3.45689" transform="rotate(-180 86.4233 169.387)" fill="#BEC3CC"/>
<circle cx="86.4233" cy="148.649" r="3.45689" transform="rotate(-180 86.4233 148.649)" fill="#BEC3CC"/>
<circle cx="86.4233" cy="127.906" r="3.45689" transform="rotate(-180 86.4233 127.906)" fill="#BEC3CC"/>
<circle cx="86.4233" cy="107.164" r="3.45689" transform="rotate(-180 86.4233 107.164)" fill="#BEC3CC"/>
<circle cx="86.4233" cy="86.4225" r="3.45689" transform="rotate(-180 86.4233 86.4225)" fill="#BEC3CC"/>
<circle cx="86.4233" cy="65.6798" r="3.45689" transform="rotate(-180 86.4233 65.6798)" fill="#BEC3CC"/>
<circle cx="86.4233" cy="44.9416" r="3.45689" transform="rotate(-180 86.4233 44.9416)" fill="#BEC3CC"/>
<circle cx="86.4233" cy="24.1994" r="3.45689" transform="rotate(-180 86.4233 24.1994)" fill="#BEC3CC"/>
<circle cx="86.4233" cy="3.45718" r="3.45689" transform="rotate(-180 86.4233 3.45718)" fill="#BEC3CC"/>
<circle cx="376.8" cy="190.129" r="3.45689" transform="rotate(-180 376.8 190.129)" fill="#BEC3CC"/>
<circle cx="376.801" cy="169.387" r="3.45689" transform="rotate(-180 376.801 169.387)" fill="#BEC3CC"/>
<circle cx="376.801" cy="148.649" r="3.45689" transform="rotate(-180 376.801 148.649)" fill="#BEC3CC"/>
<circle cx="376.801" cy="127.906" r="3.45689" transform="rotate(-180 376.801 127.906)" fill="#BEC3CC"/>
<circle cx="376.801" cy="107.164" r="3.45689" transform="rotate(-180 376.801 107.164)" fill="#BEC3CC"/>
<circle cx="376.801" cy="86.4225" r="3.45689" transform="rotate(-180 376.801 86.4225)" fill="#BEC3CC"/>
<circle cx="376.801" cy="65.6798" r="3.45689" transform="rotate(-180 376.801 65.6798)" fill="#BEC3CC"/>
<circle cx="376.801" cy="44.9416" r="3.45689" transform="rotate(-180 376.801 44.9416)" fill="#BEC3CC"/>
<circle cx="376.801" cy="24.1994" r="3.45689" transform="rotate(-180 376.801 24.1994)" fill="#BEC3CC"/>
<circle cx="376.801" cy="3.45718" r="3.45689" transform="rotate(-180 376.801 3.45718)" fill="#BEC3CC"/>
<circle cx="169.384" cy="190.129" r="3.45689" transform="rotate(-180 169.384 190.129)" fill="#BEC3CC"/>
<circle cx="169.387" cy="169.387" r="3.45689" transform="rotate(-180 169.387 169.387)" fill="#BEC3CC"/>
<circle cx="169.387" cy="148.649" r="3.45689" transform="rotate(-180 169.387 148.649)" fill="#BEC3CC"/>
<circle cx="169.387" cy="127.906" r="3.45689" transform="rotate(-180 169.387 127.906)" fill="#BEC3CC"/>
<circle cx="169.387" cy="107.164" r="3.45689" transform="rotate(-180 169.387 107.164)" fill="#BEC3CC"/>
<circle cx="169.387" cy="86.4225" r="3.45689" transform="rotate(-180 169.387 86.4225)" fill="#BEC3CC"/>
<circle cx="169.387" cy="65.6798" r="3.45689" transform="rotate(-180 169.387 65.6798)" fill="#BEC3CC"/>
<circle cx="169.387" cy="44.9416" r="3.45689" transform="rotate(-180 169.387 44.9416)" fill="#BEC3CC"/>
<circle cx="169.387" cy="24.1994" r="3.45689" transform="rotate(-180 169.387 24.1994)" fill="#BEC3CC"/>
<circle cx="169.387" cy="3.45718" r="3.45689" transform="rotate(-180 169.387 3.45718)" fill="#BEC3CC"/>
<circle cx="273.095" cy="190.129" r="3.45689" transform="rotate(-180 273.095 190.129)" fill="#BEC3CC"/>
<circle cx="273.095" cy="169.387" r="3.45689" transform="rotate(-180 273.095 169.387)" fill="#BEC3CC"/>
<circle cx="273.095" cy="148.649" r="3.45689" transform="rotate(-180 273.095 148.649)" fill="#BEC3CC"/>
<circle cx="273.095" cy="127.906" r="3.45689" transform="rotate(-180 273.095 127.906)" fill="#BEC3CC"/>
<circle cx="273.095" cy="107.164" r="3.45689" transform="rotate(-180 273.095 107.164)" fill="#BEC3CC"/>
<circle cx="273.095" cy="86.4225" r="3.45689" transform="rotate(-180 273.095 86.4225)" fill="#BEC3CC"/>
<circle cx="273.095" cy="65.6798" r="3.45689" transform="rotate(-180 273.095 65.6798)" fill="#BEC3CC"/>
<circle cx="273.095" cy="44.9416" r="3.45689" transform="rotate(-180 273.095 44.9416)" fill="#BEC3CC"/>
<circle cx="273.095" cy="24.1994" r="3.45689" transform="rotate(-180 273.095 24.1994)" fill="#BEC3CC"/>
<circle cx="273.095" cy="3.45718" r="3.45689" transform="rotate(-180 273.095 3.45718)" fill="#BEC3CC"/>
<circle cx="65.6826" cy="190.129" r="3.45689" transform="rotate(-180 65.6826 190.129)" fill="#BEC3CC"/>
<circle cx="65.6839" cy="169.387" r="3.45689" transform="rotate(-180 65.6839 169.387)" fill="#BEC3CC"/>
<circle cx="65.6839" cy="148.649" r="3.45689" transform="rotate(-180 65.6839 148.649)" fill="#BEC3CC"/>
<circle cx="65.6839" cy="127.906" r="3.45689" transform="rotate(-180 65.6839 127.906)" fill="#BEC3CC"/>
<circle cx="65.6839" cy="107.164" r="3.45689" transform="rotate(-180 65.6839 107.164)" fill="#BEC3CC"/>
<circle cx="65.6839" cy="86.4225" r="3.45689" transform="rotate(-180 65.6839 86.4225)" fill="#BEC3CC"/>
<circle cx="65.6839" cy="65.6798" r="3.45689" transform="rotate(-180 65.6839 65.6798)" fill="#BEC3CC"/>
<circle cx="65.6839" cy="44.9416" r="3.45689" transform="rotate(-180 65.6839 44.9416)" fill="#BEC3CC"/>
<circle cx="65.6839" cy="24.1994" r="3.45689" transform="rotate(-180 65.6839 24.1994)" fill="#BEC3CC"/>
<circle cx="65.6839" cy="3.45718" r="3.45689" transform="rotate(-180 65.6839 3.45718)" fill="#BEC3CC"/>
<circle cx="356.061" cy="190.129" r="3.45689" transform="rotate(-180 356.061 190.129)" fill="#BEC3CC"/>
<circle cx="356.063" cy="169.387" r="3.45689" transform="rotate(-180 356.063 169.387)" fill="#BEC3CC"/>
<circle cx="356.063" cy="148.649" r="3.45689" transform="rotate(-180 356.063 148.649)" fill="#BEC3CC"/>
<circle cx="356.063" cy="127.906" r="3.45689" transform="rotate(-180 356.063 127.906)" fill="#BEC3CC"/>
<circle cx="356.063" cy="107.164" r="3.45689" transform="rotate(-180 356.063 107.164)" fill="#BEC3CC"/>
<circle cx="356.063" cy="86.4226" r="3.45689" transform="rotate(-180 356.063 86.4226)" fill="#BEC3CC"/>
<circle cx="356.063" cy="65.6798" r="3.45689" transform="rotate(-180 356.063 65.6798)" fill="#BEC3CC"/>
<circle cx="356.063" cy="44.9416" r="3.45689" transform="rotate(-180 356.063 44.9416)" fill="#BEC3CC"/>
<circle cx="356.063" cy="24.1994" r="3.45689" transform="rotate(-180 356.063 24.1994)" fill="#BEC3CC"/>
<circle cx="356.063" cy="3.45718" r="3.45689" transform="rotate(-180 356.063 3.45718)" fill="#BEC3CC"/>
<circle cx="148.648" cy="190.129" r="3.45689" transform="rotate(-180 148.648 190.129)" fill="#BEC3CC"/>
<circle cx="148.649" cy="169.387" r="3.45689" transform="rotate(-180 148.649 169.387)" fill="#BEC3CC"/>
<circle cx="148.649" cy="148.649" r="3.45689" transform="rotate(-180 148.649 148.649)" fill="#BEC3CC"/>
<circle cx="148.649" cy="127.906" r="3.45689" transform="rotate(-180 148.649 127.906)" fill="#BEC3CC"/>
<circle cx="148.649" cy="107.164" r="3.45689" transform="rotate(-180 148.649 107.164)" fill="#BEC3CC"/>
<circle cx="148.649" cy="86.4226" r="3.45689" transform="rotate(-180 148.649 86.4226)" fill="#BEC3CC"/>
<circle cx="148.649" cy="65.6798" r="3.45689" transform="rotate(-180 148.649 65.6798)" fill="#BEC3CC"/>
<circle cx="148.649" cy="44.9416" r="3.45689" transform="rotate(-180 148.649 44.9416)" fill="#BEC3CC"/>
<circle cx="148.649" cy="24.1994" r="3.45689" transform="rotate(-180 148.649 24.1994)" fill="#BEC3CC"/>
<circle cx="148.649" cy="3.45718" r="3.45689" transform="rotate(-180 148.649 3.45718)" fill="#BEC3CC"/>
<circle cx="252.354" cy="190.129" r="3.45689" transform="rotate(-180 252.354 190.129)" fill="#BEC3CC"/>
<circle cx="252.354" cy="169.387" r="3.45689" transform="rotate(-180 252.354 169.387)" fill="#BEC3CC"/>
<circle cx="252.354" cy="148.649" r="3.45689" transform="rotate(-180 252.354 148.649)" fill="#BEC3CC"/>
<circle cx="252.354" cy="127.906" r="3.45689" transform="rotate(-180 252.354 127.906)" fill="#BEC3CC"/>
<circle cx="252.354" cy="107.164" r="3.45689" transform="rotate(-180 252.354 107.164)" fill="#BEC3CC"/>
<circle cx="252.354" cy="86.4225" r="3.45689" transform="rotate(-180 252.354 86.4225)" fill="#BEC3CC"/>
<circle cx="252.354" cy="65.6798" r="3.45689" transform="rotate(-180 252.354 65.6798)" fill="#BEC3CC"/>
<circle cx="252.354" cy="44.9416" r="3.45689" transform="rotate(-180 252.354 44.9416)" fill="#BEC3CC"/>
<circle cx="252.354" cy="24.1994" r="3.45689" transform="rotate(-180 252.354 24.1994)" fill="#BEC3CC"/>
<circle cx="252.354" cy="3.45718" r="3.45689" transform="rotate(-180 252.354 3.45718)" fill="#BEC3CC"/>
<circle cx="44.9371" cy="190.129" r="3.45689" transform="rotate(-180 44.9371 190.129)" fill="#BEC3CC"/>
<circle cx="44.9391" cy="169.387" r="3.45689" transform="rotate(-180 44.9391 169.387)" fill="#BEC3CC"/>
<circle cx="44.9391" cy="148.649" r="3.45689" transform="rotate(-180 44.9391 148.649)" fill="#BEC3CC"/>
<circle cx="44.9391" cy="127.906" r="3.45689" transform="rotate(-180 44.9391 127.906)" fill="#BEC3CC"/>
<circle cx="44.9391" cy="107.164" r="3.45689" transform="rotate(-180 44.9391 107.164)" fill="#BEC3CC"/>
<circle cx="44.9391" cy="86.4225" r="3.45689" transform="rotate(-180 44.9391 86.4225)" fill="#BEC3CC"/>
<circle cx="44.9391" cy="65.6798" r="3.45689" transform="rotate(-180 44.9391 65.6798)" fill="#BEC3CC"/>
<circle cx="44.9391" cy="44.9416" r="3.45689" transform="rotate(-180 44.9391 44.9416)" fill="#BEC3CC"/>
<circle cx="44.9391" cy="24.1994" r="3.45689" transform="rotate(-180 44.9391 24.1994)" fill="#BEC3CC"/>
<circle cx="44.9391" cy="3.45718" r="3.45689" transform="rotate(-180 44.9391 3.45718)" fill="#BEC3CC"/>
<circle cx="335.317" cy="190.129" r="3.45689" transform="rotate(-180 335.317 190.129)" fill="#BEC3CC"/>
<circle cx="335.319" cy="169.387" r="3.45689" transform="rotate(-180 335.319 169.387)" fill="#BEC3CC"/>
<circle cx="335.319" cy="148.649" r="3.45689" transform="rotate(-180 335.319 148.649)" fill="#BEC3CC"/>
<circle cx="335.319" cy="127.906" r="3.45689" transform="rotate(-180 335.319 127.906)" fill="#BEC3CC"/>
<circle cx="335.319" cy="107.164" r="3.45689" transform="rotate(-180 335.319 107.164)" fill="#BEC3CC"/>
<circle cx="335.319" cy="86.4226" r="3.45689" transform="rotate(-180 335.319 86.4226)" fill="#BEC3CC"/>
<circle cx="335.319" cy="65.6798" r="3.45689" transform="rotate(-180 335.319 65.6798)" fill="#BEC3CC"/>
<circle cx="335.319" cy="44.9416" r="3.45689" transform="rotate(-180 335.319 44.9416)" fill="#BEC3CC"/>
<circle cx="335.319" cy="24.1994" r="3.45689" transform="rotate(-180 335.319 24.1994)" fill="#BEC3CC"/>
<circle cx="335.319" cy="3.45718" r="3.45689" transform="rotate(-180 335.319 3.45718)" fill="#BEC3CC"/>
<circle cx="127.905" cy="190.129" r="3.45689" transform="rotate(-180 127.905 190.129)" fill="#BEC3CC"/>
<circle cx="127.906" cy="169.387" r="3.45689" transform="rotate(-180 127.906 169.387)" fill="#BEC3CC"/>
<circle cx="127.906" cy="148.649" r="3.45689" transform="rotate(-180 127.906 148.649)" fill="#BEC3CC"/>
<circle cx="127.906" cy="127.906" r="3.45689" transform="rotate(-180 127.906 127.906)" fill="#BEC3CC"/>
<circle cx="127.906" cy="107.164" r="3.45689" transform="rotate(-180 127.906 107.164)" fill="#BEC3CC"/>
<circle cx="127.906" cy="86.4225" r="3.45689" transform="rotate(-180 127.906 86.4225)" fill="#BEC3CC"/>
<circle cx="127.907" cy="65.6798" r="3.45689" transform="rotate(-180 127.907 65.6798)" fill="#BEC3CC"/>
<circle cx="127.907" cy="44.9416" r="3.45689" transform="rotate(-180 127.907 44.9416)" fill="#BEC3CC"/>
<circle cx="127.907" cy="24.1994" r="3.45689" transform="rotate(-180 127.907 24.1994)" fill="#BEC3CC"/>
<circle cx="127.906" cy="3.45718" r="3.45689" transform="rotate(-180 127.906 3.45718)" fill="#BEC3CC"/>
<circle cx="231.611" cy="190.129" r="3.45689" transform="rotate(-180 231.611 190.129)" fill="#BEC3CC"/>
<circle cx="231.612" cy="169.387" r="3.45689" transform="rotate(-180 231.612 169.387)" fill="#BEC3CC"/>
<circle cx="231.612" cy="148.649" r="3.45689" transform="rotate(-180 231.612 148.649)" fill="#BEC3CC"/>
<circle cx="231.612" cy="127.906" r="3.45689" transform="rotate(-180 231.612 127.906)" fill="#BEC3CC"/>
<circle cx="231.612" cy="107.164" r="3.45689" transform="rotate(-180 231.612 107.164)" fill="#BEC3CC"/>
<circle cx="231.612" cy="86.4225" r="3.45689" transform="rotate(-180 231.612 86.4225)" fill="#BEC3CC"/>
<circle cx="231.612" cy="65.6798" r="3.45689" transform="rotate(-180 231.612 65.6798)" fill="#BEC3CC"/>
<circle cx="231.612" cy="44.9416" r="3.45689" transform="rotate(-180 231.612 44.9416)" fill="#BEC3CC"/>
<circle cx="231.612" cy="24.1994" r="3.45689" transform="rotate(-180 231.612 24.1994)" fill="#BEC3CC"/>
<circle cx="231.612" cy="3.45718" r="3.45689" transform="rotate(-180 231.612 3.45718)" fill="#BEC3CC"/>
<circle cx="24.1998" cy="190.129" r="3.45689" transform="rotate(-180 24.1998 190.129)" fill="#BEC3CC"/>
<circle cx="24.2004" cy="169.387" r="3.45689" transform="rotate(-180 24.2004 169.387)" fill="#BEC3CC"/>
<circle cx="24.2004" cy="148.645" r="3.45689" transform="rotate(-180 24.2004 148.645)" fill="#BEC3CC"/>
<circle cx="24.2004" cy="127.906" r="3.45689" transform="rotate(-180 24.2004 127.906)" fill="#BEC3CC"/>
<circle cx="24.2004" cy="107.164" r="3.45689" transform="rotate(-180 24.2004 107.164)" fill="#BEC3CC"/>
<circle cx="24.2004" cy="86.4225" r="3.45689" transform="rotate(-180 24.2004 86.4225)" fill="#BEC3CC"/>
<circle cx="24.2004" cy="65.6798" r="3.45689" transform="rotate(-180 24.2004 65.6798)" fill="#BEC3CC"/>
<circle cx="24.2004" cy="44.9376" r="3.45689" transform="rotate(-180 24.2004 44.9376)" fill="#BEC3CC"/>
<circle cx="24.2004" cy="24.1994" r="3.45689" transform="rotate(-180 24.2004 24.1994)" fill="#BEC3CC"/>
<circle cx="24.2004" cy="3.45718" r="3.45689" transform="rotate(-180 24.2004 3.45718)" fill="#BEC3CC"/>
<circle cx="314.579" cy="190.129" r="3.45689" transform="rotate(-180 314.579 190.129)" fill="#BEC3CC"/>
<circle cx="314.578" cy="169.387" r="3.45689" transform="rotate(-180 314.578 169.387)" fill="#BEC3CC"/>
<circle cx="314.578" cy="148.649" r="3.45689" transform="rotate(-180 314.578 148.649)" fill="#BEC3CC"/>
<circle cx="314.578" cy="127.906" r="3.45689" transform="rotate(-180 314.578 127.906)" fill="#BEC3CC"/>
<circle cx="314.578" cy="107.164" r="3.45689" transform="rotate(-180 314.578 107.164)" fill="#BEC3CC"/>
<circle cx="314.578" cy="86.4225" r="3.45689" transform="rotate(-180 314.578 86.4225)" fill="#BEC3CC"/>
<circle cx="314.578" cy="65.6798" r="3.45689" transform="rotate(-180 314.578 65.6798)" fill="#BEC3CC"/>
<circle cx="314.578" cy="44.9416" r="3.45689" transform="rotate(-180 314.578 44.9416)" fill="#BEC3CC"/>
<circle cx="314.578" cy="24.1994" r="3.45689" transform="rotate(-180 314.578 24.1994)" fill="#BEC3CC"/>
<circle cx="314.578" cy="3.45718" r="3.45689" transform="rotate(-180 314.578 3.45718)" fill="#BEC3CC"/>
<circle cx="107.166" cy="190.129" r="3.45689" transform="rotate(-180 107.166 190.129)" fill="#BEC3CC"/>
<circle cx="107.166" cy="169.387" r="3.45689" transform="rotate(-180 107.166 169.387)" fill="#BEC3CC"/>
<circle cx="107.166" cy="148.649" r="3.45689" transform="rotate(-180 107.166 148.649)" fill="#BEC3CC"/>
<circle cx="107.166" cy="127.906" r="3.45689" transform="rotate(-180 107.166 127.906)" fill="#BEC3CC"/>
<circle cx="107.166" cy="107.164" r="3.45689" transform="rotate(-180 107.166 107.164)" fill="#BEC3CC"/>
<circle cx="107.166" cy="86.4225" r="3.45689" transform="rotate(-180 107.166 86.4225)" fill="#BEC3CC"/>
<circle cx="107.166" cy="65.6798" r="3.45689" transform="rotate(-180 107.166 65.6798)" fill="#BEC3CC"/>
<circle cx="107.166" cy="44.9416" r="3.45689" transform="rotate(-180 107.166 44.9416)" fill="#BEC3CC"/>
<circle cx="107.166" cy="24.1994" r="3.45689" transform="rotate(-180 107.166 24.1994)" fill="#BEC3CC"/>
<circle cx="107.166" cy="3.45718" r="3.45689" transform="rotate(-180 107.166 3.45718)" fill="#BEC3CC"/>
<circle cx="210.87" cy="190.129" r="3.45689" transform="rotate(-180 210.87 190.129)" fill="#BEC3CC"/>
<circle cx="210.871" cy="169.387" r="3.45689" transform="rotate(-180 210.871 169.387)" fill="#BEC3CC"/>
<circle cx="210.871" cy="148.649" r="3.45689" transform="rotate(-180 210.871 148.649)" fill="#BEC3CC"/>
<circle cx="210.871" cy="127.906" r="3.45689" transform="rotate(-180 210.871 127.906)" fill="#BEC3CC"/>
<circle cx="210.871" cy="107.164" r="3.45689" transform="rotate(-180 210.871 107.164)" fill="#BEC3CC"/>
<circle cx="210.871" cy="86.4225" r="3.45689" transform="rotate(-180 210.871 86.4225)" fill="#BEC3CC"/>
<circle cx="210.871" cy="65.6798" r="3.45689" transform="rotate(-180 210.871 65.6798)" fill="#BEC3CC"/>
<circle cx="210.871" cy="44.9416" r="3.45689" transform="rotate(-180 210.871 44.9416)" fill="#BEC3CC"/>
<circle cx="210.871" cy="24.1994" r="3.45689" transform="rotate(-180 210.871 24.1994)" fill="#BEC3CC"/>
<circle cx="210.871" cy="3.45718" r="3.45689" transform="rotate(-180 210.871 3.45718)" fill="#BEC3CC"/>
<circle cx="3.45689" cy="190.129" r="3.45689" transform="rotate(-180 3.45689 190.129)" fill="#BEC3CC"/>
<circle cx="3.45956" cy="169.387" r="3.45689" transform="rotate(-180 3.45956 169.387)" fill="#BEC3CC"/>
<circle cx="3.45956" cy="148.649" r="3.45689" transform="rotate(-180 3.45956 148.649)" fill="#BEC3CC"/>
<circle cx="3.45956" cy="127.906" r="3.45689" transform="rotate(-180 3.45956 127.906)" fill="#BEC3CC"/>
<circle cx="3.45956" cy="107.164" r="3.45689" transform="rotate(-180 3.45956 107.164)" fill="#BEC3CC"/>
<circle cx="3.45956" cy="86.4225" r="3.45689" transform="rotate(-180 3.45956 86.4225)" fill="#BEC3CC"/>
<circle cx="3.45957" cy="65.6798" r="3.45689" transform="rotate(-180 3.45957 65.6798)" fill="#BEC3CC"/>
<circle cx="3.45957" cy="44.9416" r="3.45689" transform="rotate(-180 3.45957 44.9416)" fill="#BEC3CC"/>
<circle cx="3.45957" cy="24.1994" r="3.45689" transform="rotate(-180 3.45957 24.1994)" fill="#BEC3CC"/>
<circle cx="3.45956" cy="3.45718" r="3.45689" transform="rotate(-180 3.45956 3.45718)" fill="#BEC3CC"/>
</g>
</svg>
