<svg width="28" height="23" viewBox="0 0 28 23" fill="none" xmlns="http://www.w3.org/2000/svg">
<path d="M13.9307 0C8.51797 0 3.98732 3.77086 2.81958 8.82861H6.86702C7.91878 5.9454 10.6839 3.88628 13.9308 3.88628C17.1777 3.88628 19.9427 5.94562 20.9942 8.82868H25.0417C23.8739 3.77036 19.3433 7.21038e-05 13.9306 7.21038e-05L13.9307 0ZM2.86683 14.1826C4.10761 19.1378 8.591 22.8079 13.9307 22.8079C19.2707 22.8079 23.7538 19.1381 24.9946 14.1826H20.918C19.8132 16.9591 17.1012 18.9216 13.9308 18.9216C10.7605 18.9216 8.04859 16.9591 6.94342 14.1828H2.86683V14.1826Z" fill="#FF1E00"/>
<path d="M0 14.5664L4.89293 9.03955L9.99864 14.5751" fill="#FF1E00"/>
<path d="M18.0015 8.4342L22.8944 13.961L28.0001 8.42554" fill="#FF1E00"/>
</svg>
