<svg width="28" height="31" viewBox="0 0 28 31" fill="none" xmlns="http://www.w3.org/2000/svg">
<path d="M17.0887 1.83917L16.7718 1.24482L16.645 1.95614L16.3132 3.81869C15.581 3.69268 14.8308 3.62591 14.0615 3.62591C6.70863 3.62591 0.75 9.58397 0.75 16.9374V16.9374C0.750458 24.2902 6.70858 30.25 14.0615 30.25C21.4143 30.25 27.3747 24.2903 27.3747 16.9368C27.3747 13.2764 25.8923 9.97485 23.5027 7.57068L23.356 7.42306L23.1842 7.5406L20.9533 9.06719L20.6937 9.24482L20.9254 9.45761C22.9455 11.3135 24.2099 13.9773 24.2099 16.9368C24.2099 22.5427 19.6674 27.0869 14.0615 27.0869C8.45572 27.0869 3.91316 22.5427 3.91316 16.9368C3.91316 11.3311 8.45572 6.78846 14.0615 6.78846C14.6399 6.78846 15.2084 6.83687 15.7598 6.92992L15.3802 9.13785L15.3075 9.56041L15.7111 9.4155L19.1397 8.18422L19.1413 8.18366L22.5609 6.93023L22.9629 6.78288L22.637 6.5052L19.8615 4.14055L19.8615 4.14054L19.859 4.13848L17.0887 1.83917Z" fill="#225500" stroke="#225500" stroke-width="0.5"/>
</svg>
