<svg width="30" height="27" viewBox="0 0 30 27" fill="none" xmlns="http://www.w3.org/2000/svg">
<path d="M29.0954 1.03005L29.1413 0.884442L28.9894 0.900559C28.5659 0.945525 28.1423 0.990542 27.7188 1.03556C26.1481 1.20251 24.5774 1.36946 23.0064 1.53374L22.6798 1.56789L22.97 1.72157C23.2622 1.87635 23.5572 2.0273 23.8516 2.17779L23.8733 2.18888C24.1125 2.31117 24.3512 2.43321 24.5883 2.55714C24.0488 2.94529 21.9728 4.43537 20.0885 5.7879C18.4631 6.95452 16.9804 8.0188 16.7493 8.18529C16.7319 8.18483 16.7136 8.18438 16.6948 8.18392C16.604 8.18171 16.5004 8.17919 16.4275 8.1725C16.4255 8.17167 16.4232 8.17068 16.4204 8.1695L16.3745 8.14955C16.3357 8.13254 16.2816 8.10854 16.2142 8.07848C16.0795 8.0184 15.8923 7.93439 15.6701 7.83439C15.2257 7.6344 14.6416 7.37059 14.0575 7.10656C13.6564 6.92522 13.2549 6.74361 12.8987 6.58249C12.2188 6.27495 11.7039 6.04204 11.6713 6.0281L11.6158 6.00438L11.5689 6.04246C11.4481 6.14067 6.59609 10.1939 3.48818 12.7902C2.05374 13.9885 0.990835 14.8765 0.93611 14.9219L0.768969 15.0607L0.983117 15.0974C1.04581 15.1082 1.10883 15.1144 1.16781 15.1202L1.1748 15.1209C1.23705 15.127 1.29499 15.1329 1.35145 15.1432L1.38651 15.1495L1.41767 15.1322C1.47226 15.102 11.6623 8.85512 12.348 8.43213C12.3565 8.43458 12.3669 8.43774 12.3792 8.44167C12.4215 8.45523 12.4808 8.47615 12.5554 8.5038C12.7044 8.55897 12.9103 8.63931 13.1547 8.73686C13.6431 8.93187 14.2825 9.19456 14.9218 9.45951C15.5911 9.73693 16.2623 10.0177 16.7583 10.2253C17.2071 10.413 17.5125 10.5408 17.5436 10.5519L17.5932 10.5696L17.6359 10.5387C17.6692 10.5146 22.3533 6.96557 24.9784 4.97653C25.8421 4.32214 26.4829 3.83659 26.662 3.70097C26.8642 3.8065 27.068 3.90967 27.2711 4.01252L27.2733 4.0136C27.4948 4.12574 27.7156 4.23752 27.9342 4.35219L28.0399 4.40764L28.076 4.29384C28.2627 3.70465 28.4464 3.11314 28.6299 2.52193C28.7845 2.0239 28.9391 1.52608 29.0954 1.03005Z" fill="#FF1E00" stroke="#FF1E00" stroke-width="0.2"/>
<path d="M29.0954 12.03L29.1413 11.8844L28.9894 11.9006C28.5659 11.9455 28.1423 11.9905 27.7188 12.0356C26.1481 12.2025 24.5774 12.3695 23.0064 12.5337L22.6798 12.5679L22.97 12.7216C23.2622 12.8763 23.5572 13.0273 23.8516 13.1778L23.8733 13.1889C24.1125 13.3112 24.3512 13.4332 24.5883 13.5571C24.0488 13.9453 21.9728 15.4354 20.0885 16.7879C18.4631 17.9545 16.9804 19.0188 16.7493 19.1853C16.7319 19.1848 16.7136 19.1844 16.6948 19.1839C16.604 19.1817 16.5004 19.1792 16.4275 19.1725C16.4255 19.1717 16.4232 19.1707 16.4204 19.1695L16.3745 19.1495C16.3357 19.1325 16.2816 19.1085 16.2142 19.0785C16.0795 19.0184 15.8923 18.9344 15.6701 18.8344C15.2257 18.6344 14.6416 18.3706 14.0575 18.1066C13.6564 17.9252 13.2549 17.7436 12.8987 17.5825C12.2188 17.2749 11.7039 17.042 11.6713 17.0281L11.6158 17.0044L11.5689 17.0425C11.4481 17.1407 6.59609 21.1939 3.48818 23.7902C2.05374 24.9885 0.990835 25.8765 0.93611 25.9219L0.768969 26.0607L0.983117 26.0974C1.04581 26.1082 1.10883 26.1144 1.16781 26.1202L1.1748 26.1209C1.23705 26.127 1.29499 26.1329 1.35145 26.1432L1.38651 26.1495L1.41767 26.1322C1.47226 26.102 11.6623 19.8551 12.348 19.4321C12.3565 19.4346 12.3669 19.4377 12.3792 19.4417C12.4215 19.4552 12.4808 19.4762 12.5554 19.5038C12.7044 19.559 12.9103 19.6393 13.1547 19.7369C13.6431 19.9319 14.2825 20.1946 14.9218 20.4595C15.5911 20.7369 16.2623 21.0177 16.7583 21.2253C17.2071 21.413 17.5125 21.5408 17.5436 21.5519L17.5932 21.5696L17.6359 21.5387C17.6692 21.5146 22.3533 17.9656 24.9784 15.9765C25.8421 15.3221 26.4829 14.8366 26.662 14.701C26.8642 14.8065 27.068 14.9097 27.2711 15.0125L27.2733 15.0136C27.4948 15.1257 27.7156 15.2375 27.9342 15.3522L28.0399 15.4076L28.076 15.2938C28.2627 14.7046 28.4464 14.1131 28.6299 13.5219C28.7845 13.0239 28.9391 12.5261 29.0954 12.03Z" fill="#2C8F3C" stroke="#2C8F3C" stroke-width="0.2"/>
</svg>
