<svg width="28" height="28" viewBox="0 0 28 28" fill="none" xmlns="http://www.w3.org/2000/svg">
<g clip-path="url(#clip0)">
<path d="M14 -0.1C6.21243 -0.1 -0.1 6.21243 -0.1 14C-0.1 21.7876 6.21243 28.1 14 28.1C21.7876 28.1 28.1 21.7876 28.1 14C28.1 6.21237 21.7876 -0.1 14 -0.1ZM14 26.15C7.3002 26.15 1.85 20.6997 1.85 14C1.85 7.30026 7.30026 1.85 14 1.85C20.6997 1.85 26.15 7.3002 26.15 14C26.15 20.6998 20.6998 26.15 14 26.15Z" fill="#FF1E00" stroke="#FF1E00" stroke-width="0.2"/>
<path d="M16.2228 7.95273H16.1613L16.1335 8.00767L10.1441 19.8718L10.0709 20.0168H10.2334H11.8294H11.8912L11.9188 19.9616L17.8618 8.09752L17.9344 7.95273H17.7724H16.2228Z" fill="#FF1E00" stroke="#FF1E00" stroke-width="0.2"/>
<path d="M12.0988 13.3281L12.099 13.3279C12.5645 12.8154 12.7882 12.04 12.7882 11.0207C12.7882 9.99739 12.5646 9.21984 12.0987 8.71139C11.6333 8.20285 10.9927 7.95359 10.1875 7.95359C9.40802 7.95359 8.7792 8.20546 8.31542 8.71509C7.84885 9.22684 7.62607 10.0025 7.62607 11.0216C7.62607 12.0456 7.84871 12.8233 8.31559 13.3317C8.78016 13.8404 9.42179 14.0887 10.226 14.0887C11.0062 14.0887 11.6342 13.8377 12.0988 13.3281ZM10.6425 12.4227C10.5342 12.5778 10.3863 12.6541 10.1883 12.6541C9.99637 12.6541 9.85133 12.5784 9.74236 12.4221C9.66992 12.3138 9.61002 12.1445 9.56892 11.9054C9.528 11.6673 9.50694 11.3678 9.50694 11.0059C9.50694 10.6435 9.528 10.3442 9.56892 10.1063C9.60999 9.8675 9.66986 9.69797 9.74246 9.58867C9.85137 9.43249 9.99718 9.35678 10.1883 9.35678C10.3863 9.35678 10.5336 9.435 10.6425 9.59597C10.7128 9.70183 10.771 9.86916 10.8108 10.1074C10.8503 10.3443 10.8705 10.6433 10.8705 11.0059C10.8705 11.3679 10.8501 11.6674 10.8104 11.9055C10.7707 12.1442 10.7127 12.3138 10.6425 12.4227Z" fill="#FF1E00" stroke="#FF1E00" stroke-width="0.2"/>
<path d="M15.9004 14.6575L15.9003 14.6575C15.4347 15.1692 15.211 15.9447 15.211 16.964C15.211 17.9882 15.4346 18.7673 15.9004 19.2783L15.9004 19.2784C16.3657 19.7887 17.0064 20.039 17.8118 20.039C18.5911 20.039 19.22 19.788 19.6838 19.2783C20.1504 18.7665 20.374 17.9883 20.374 16.964C20.374 15.9457 20.1503 15.1692 19.6838 14.6575L19.6838 14.6575C19.2188 14.1474 18.5827 13.896 17.7882 13.896C16.9977 13.896 16.3652 14.1476 15.9004 14.6575ZM18.2188 18.3729L18.2186 18.3733C18.1155 18.5279 17.9708 18.6044 17.7733 18.6044C17.5821 18.6044 17.4362 18.5267 17.3278 18.3651L17.3278 18.3651L17.3272 18.3643C17.2546 18.2586 17.1946 18.0914 17.1535 17.8533C17.1127 17.6167 17.0919 17.3182 17.0919 16.9561C17.0919 16.5937 17.1127 16.2944 17.1536 16.0565C17.1946 15.8171 17.2547 15.6475 17.3278 15.5383L17.3279 15.5381C17.431 15.3836 17.5758 15.3071 17.7733 15.3071C17.9704 15.3071 18.1184 15.3834 18.2268 15.5386C18.2976 15.6473 18.3556 15.8167 18.3952 16.0556C18.4347 16.2938 18.4547 16.5935 18.4547 16.9561C18.4547 17.3186 18.4338 17.6179 18.393 17.8557C18.3519 18.0949 18.2919 18.2643 18.2188 18.3729Z" fill="#FF1E00" stroke="#FF1E00" stroke-width="0.2"/>
</g>
<defs>
<clipPath id="clip0">
<rect width="28" height="28" fill="white"/>
</clipPath>
</defs>
</svg>
