<svg width="30" height="30" viewBox="0 0 30 30" fill="none" xmlns="http://www.w3.org/2000/svg">
<path d="M24.4522 1H5.54777C3.03611 1 1 3.03611 1 5.54777V24.4522C1 26.9639 3.03611 29 5.54777 29H24.4522C26.9639 29 29 26.9639 29 24.4522V5.54777C29 3.03611 26.9639 1 24.4522 1Z" fill="#EBEBEB" stroke="black" stroke-width="0.5"/>
<path d="M5.43017 1.0008C4.65077 1.02042 3.92152 1.23604 3.28833 1.59774C3.46863 2.11639 3.76703 2.60388 4.18284 3.01969L9.46082 8.29767V28.9997H20.5389V8.29767L25.8168 3.01969C26.2327 2.60388 26.5311 2.11639 26.7114 1.59774C26.0464 1.21789 25.2756 1.0008 24.4519 1.0008H5.54777C5.50841 1.0008 5.46929 0.999819 5.43017 1.0008Z" fill="#E1E1E1" stroke="black" stroke-width="0.5"/>
<path d="M5.4751 1.00066C5.58671 1.56743 5.861 2.10823 6.3019 2.54913L12.8682 9.1172C14.0489 10.2979 15.9516 10.2979 17.1323 9.1172L23.6986 2.54913C24.1394 2.10823 24.4137 1.56743 24.5254 1.00066C24.501 1.00028 24.4767 1.00066 24.4523 1.00066H5.54816C5.5237 1.00066 5.49946 1.00028 5.4751 1.00066Z" fill="#AEAEAE" stroke="black" stroke-width="0.5"/>
<path d="M15.0007 1.61133C12.5853 1.61133 10.4093 2.64748 8.89502 4.29878L12.2293 7.63309C12.8851 6.83019 13.8839 6.3184 15.0007 6.3184C16.1174 6.31839 17.1146 6.83019 17.7704 7.63309L21.1047 4.29878C19.5905 2.64748 17.416 1.61133 15.0007 1.61133Z" fill="white" stroke="black" stroke-width="0.5"/>
<path d="M15 4.51257V5.80503" stroke="black"/>
<path d="M15.9873 4.59888L15.7629 5.87169" stroke="black" stroke-width="0.5"/>
<path d="M16.9453 4.85559L16.5033 6.0701" stroke="black" stroke-width="0.5"/>
<path d="M17.8433 5.27454L17.197 6.39384" stroke="black" stroke-width="0.5"/>
<path d="M18.6553 5.84302L17.8245 6.83309" stroke="black" stroke-width="0.5"/>
<path d="M11.3442 5.84302L12.175 6.83309" stroke="black" stroke-width="0.5"/>
<path d="M12.1562 5.27454L12.8025 6.39384" stroke="black" stroke-width="0.5"/>
<path d="M13.0557 4.85559L13.4977 6.0701" stroke="black" stroke-width="0.5"/>
<path d="M15 3.52932V1.78198" stroke="black"/>
<path d="M16.5858 3.73077L17.0381 2.04297" stroke="black" stroke-width="0.5"/>
<path d="M18.0662 4.33563L18.9399 2.82239" stroke="black" stroke-width="0.5"/>
<path d="M19.3387 5.30306L20.5742 4.0675" stroke="black" stroke-width="0.5"/>
<path d="M10.6774 5.34347L9.44189 4.10791" stroke="black" stroke-width="0.5"/>
<path d="M11.942 4.36419L11.0684 2.85095" stroke="black" stroke-width="0.5"/>
<path d="M13.4161 3.74529L12.9639 2.0575" stroke="black" stroke-width="0.5"/>
<path d="M14.0176 4.59827L14.2409 5.8713" stroke="black" stroke-width="0.5"/>
<path d="M15 1.80396V6.14313" stroke="#D40000" stroke-width="0.5"/>
</svg>
