<svg width="28" height="20" viewBox="0 0 28 20" fill="none" xmlns="http://www.w3.org/2000/svg">
<path d="M27.7834 15.3208C27.7834 17.2529 21.564 18.8192 13.8917 18.8192C6.21938 18.8192 0 17.2529 0 15.3208C0 13.3886 6.21938 11.8224 13.8917 11.8224C21.564 11.8224 27.7834 13.3886 27.7834 15.3208Z" fill="#FF9999"/>
<path d="M0.0012207 15.261C0.0012207 13.3288 6.2206 11.7626 13.8929 11.7626C21.5652 11.7626 27.7846 13.3289 27.7846 15.261C27.7846 17.1931 21.5652 18.7594 13.8929 18.7594C6.2206 18.7594 0.0012207 17.1931 0.0012207 15.261Z" fill="#FF9A9A"/>
<path d="M0.00268555 15.2008C0.00268555 13.2686 6.22206 11.7024 13.8944 11.7024C21.5667 11.7024 27.7861 13.2687 27.7861 15.2008C27.7861 17.1329 21.5667 18.6992 13.8944 18.6992C6.22206 18.6992 0.00268555 17.1329 0.00268555 15.2008Z" fill="#FF9A9B"/>
<path d="M0.00415039 15.141C0.00415039 13.2088 6.22353 11.6426 13.8959 11.6426C21.5682 11.6426 27.7875 13.2089 27.7875 15.141C27.7875 17.0731 21.5682 18.6394 13.8959 18.6394C6.22353 18.6394 0.00415039 17.0731 0.00415039 15.1412V15.141Z" fill="#FF9B9C"/>
<path d="M0.00561523 15.0805C0.00561523 13.1483 6.22499 11.582 13.8973 11.582C21.5696 11.582 27.789 13.1483 27.789 15.0805C27.789 17.0126 21.5696 18.5789 13.8973 18.5789C6.22499 18.5789 0.00561523 17.0126 0.00561523 15.0805Z" fill="#FF9C9D"/>
<path d="M0.00683594 15.0207C0.00683594 13.0885 6.22621 11.5222 13.8985 11.5222C21.5709 11.5222 27.7902 13.0885 27.7902 15.0207C27.7902 16.9528 21.5709 18.5191 13.8985 18.5191C6.22621 18.5191 0.00683594 16.9528 0.00683594 15.0207Z" fill="#FF9C9E"/>
<path d="M0.00805664 14.9602C0.00805664 13.028 6.22744 11.4618 13.8998 11.4618C21.5721 11.4618 27.7914 13.0281 27.7914 14.9602C27.7914 16.8923 21.5721 18.4586 13.8998 18.4586C6.22744 18.4586 0.00805664 16.8923 0.00805664 14.9602Z" fill="#FF9D9F"/>
<path d="M0.00952148 14.9007C0.00952148 12.9685 6.2289 11.4022 13.9012 11.4022C21.5735 11.4022 27.7929 12.9685 27.7929 14.9007C27.7929 16.8328 21.5735 18.3991 13.9012 18.3991C6.2289 18.3991 0.00952148 16.8328 0.00952148 14.9007Z" fill="#FF9EA0"/>
<path d="M0.0109863 14.8409C0.0109863 12.9087 6.23036 11.3424 13.9027 11.3424C21.575 11.3424 27.7944 12.9087 27.7944 14.8409C27.7944 16.7729 21.575 18.3392 13.9027 18.3392C6.23036 18.3392 0.0109863 16.7729 0.0109863 14.8409Z" fill="#FF9FA1"/>
<path d="M0.0124512 14.7804C0.0124512 12.8482 6.23183 11.282 13.9041 11.282C21.5765 11.282 27.7959 12.8483 27.7959 14.7804C27.7959 16.7125 21.5765 18.2788 13.9041 18.2788C6.23183 18.2788 0.0124512 16.7125 0.0124512 14.7804Z" fill="#FF9FA2"/>
<path d="M0.0136719 14.721C0.0136719 12.7888 6.23305 11.2225 13.9054 11.2225C21.5777 11.2225 27.7971 12.7888 27.7971 14.721C27.7971 16.6531 21.5777 18.2194 13.9054 18.2194C6.23305 18.2194 0.0136719 16.6531 0.0136719 14.721Z" fill="#FFA0A3"/>
<path d="M0.0148926 14.6603C0.0148926 12.7281 6.23427 11.1619 13.9066 11.1619C21.5789 11.1619 27.7983 12.7282 27.7983 14.6603C27.7983 16.5924 21.5789 18.1587 13.9066 18.1587C6.23427 18.1588 0.0148926 16.5924 0.0148926 14.6603Z" fill="#FFA1A4"/>
<path d="M0.0163574 14.6005C0.0163574 12.6683 6.23574 11.1021 13.9081 11.1021C21.5804 11.1021 27.7998 12.6684 27.7998 14.6005C27.7998 16.5326 21.5804 18.0989 13.9081 18.0989C6.23574 18.0989 0.0163574 16.5326 0.0163574 14.6006V14.6005Z" fill="#FFA1A5"/>
<path d="M0.0183105 14.5407C0.0183105 12.6085 6.23769 11.0422 13.91 11.0422C21.5823 11.0422 27.8017 12.6085 27.8017 14.5407C27.8017 16.4728 21.5823 18.0391 13.91 18.0391C6.23769 18.0391 0.0183105 16.4728 0.0183105 14.5407Z" fill="#FFA2A6"/>
<path d="M0.0197754 14.4806C0.0197754 12.5484 6.23915 10.9822 13.9115 10.9822C21.5838 10.9822 27.8032 12.5485 27.8032 14.4806C27.8032 16.4127 21.5838 17.979 13.9115 17.979C6.23915 17.979 0.0197754 16.4127 0.0197754 14.4806Z" fill="#FFA3A7"/>
<path d="M0.0212402 14.4204C0.0212402 12.4882 6.24062 10.922 13.9129 10.922C21.5853 10.922 27.8046 12.4883 27.8046 14.4204C27.8046 16.3525 21.5853 17.9188 13.9129 17.9188C6.24062 17.9188 0.0212402 16.3525 0.0212402 14.4204Z" fill="#FFA3A8"/>
<path d="M0.0227051 14.3604C0.0227051 12.4282 6.24208 10.8619 13.9144 10.8619C21.5867 10.8619 27.8061 12.4282 27.8061 14.3604C27.8061 16.2925 21.5867 17.8588 13.9144 17.8588C6.24208 17.8588 0.0227051 16.2924 0.0227051 14.3604Z" fill="#FFA4A9"/>
<path d="M0.0239258 14.3006C0.0239258 12.3684 6.2433 10.8021 13.9156 10.8021C21.5879 10.8021 27.8073 12.3684 27.8073 14.3006C27.8073 16.2327 21.5879 17.799 13.9156 17.799C6.2433 17.799 0.0239258 16.2327 0.0239258 14.3006Z" fill="#FFA5AA"/>
<path d="M0.0251465 14.2408C0.0251465 12.3086 6.24452 10.7423 13.9168 10.7423C21.5892 10.7423 27.8085 12.3086 27.8085 14.2408C27.8085 16.1728 21.5892 17.7391 13.9168 17.7391C6.24452 17.7391 0.0251465 16.1728 0.0251465 14.2408Z" fill="#FFA6AB"/>
<path d="M0.0266113 14.1801C0.0266113 12.2479 6.24599 10.6816 13.9183 10.6816C21.5906 10.6816 27.81 12.2479 27.81 14.1801C27.81 16.1122 21.5906 17.6785 13.9183 17.6785C6.24599 17.6785 0.0266113 16.1122 0.0266113 14.1801Z" fill="#FFA6AC"/>
<path d="M0.0280762 14.1208C0.0280762 12.1886 6.24745 10.6223 13.9198 10.6223C21.5921 10.6223 27.8115 12.1886 27.8115 14.1208C27.8115 16.0529 21.5921 17.6192 13.9198 17.6192C6.24745 17.6192 0.0280762 16.0529 0.0280762 14.1208Z" fill="#FFA7AD"/>
<path d="M0.029541 14.0602C0.029541 12.128 6.24892 10.5618 13.9212 10.5618C21.5936 10.5618 27.8129 12.1281 27.8129 14.0602C27.8129 15.9923 21.5936 17.5586 13.9212 17.5586C6.24892 17.5586 0.029541 15.9923 0.029541 14.0602Z" fill="#FFA8AE"/>
<path d="M0.0307617 14.0004C0.0307617 12.0682 6.25014 10.502 13.9225 10.502C21.5948 10.502 27.8142 12.0683 27.8142 14.0004C27.8142 15.9325 21.5948 17.4988 13.9225 17.4988C6.25014 17.4988 0.0307617 15.9324 0.0307617 14.0004Z" fill="#FFA8AF"/>
<path d="M0.0319824 13.9406C0.0319824 12.0084 6.25136 10.4421 13.9237 10.4421C21.596 10.4421 27.8154 12.0084 27.8154 13.9406C27.8154 15.8727 21.596 17.439 13.9237 17.439C6.25136 17.439 0.0319824 15.8726 0.0319824 13.9406Z" fill="#FFA9B0"/>
<path d="M0.0334473 13.8804C0.0334473 11.9482 6.25283 10.382 13.9251 10.382C21.5975 10.382 27.8168 11.9483 27.8168 13.8804C27.8168 15.8125 21.5975 17.3788 13.9251 17.3788C6.25283 17.3788 0.0334473 15.8125 0.0334473 13.8804Z" fill="#FFAAB1"/>
<path d="M0.0349121 13.8203C0.0349121 11.8882 6.25429 10.3219 13.9266 10.3219C21.5989 10.3219 27.8183 11.8882 27.8183 13.8203C27.8183 15.7524 21.5989 17.3187 13.9266 17.3187C6.25429 17.3187 0.0349121 15.7524 0.0349121 13.8205V13.8203Z" fill="#FFAAB2"/>
<path d="M0.036377 13.7602C0.036377 11.828 6.25576 10.2617 13.9281 10.2617C21.6004 10.2617 27.8198 11.828 27.8198 13.7602C27.8198 15.6923 21.6004 17.2586 13.9281 17.2586C6.25576 17.2586 0.036377 15.6923 0.036377 13.7602Z" fill="#FFABB3"/>
<path d="M0.0375977 13.7007C0.0375977 11.7685 6.25698 10.2023 13.9293 10.2023C21.6016 10.2023 27.821 11.7686 27.821 13.7007C27.821 15.6328 21.6016 17.1991 13.9293 17.1991C6.25698 17.1991 0.0375977 15.6328 0.0375977 13.7007Z" fill="#FFACB4"/>
<path d="M0.0388184 13.64C0.0388184 11.7079 6.2582 10.1416 13.9305 10.1416C21.6028 10.1416 27.8222 11.7079 27.8222 13.64C27.8222 15.5721 21.6028 17.1384 13.9305 17.1384C6.2582 17.1384 0.0388184 15.5721 0.0388184 13.64Z" fill="#FFADB5"/>
<path d="M0.0402832 13.5802C0.0402832 11.648 6.25966 10.0818 13.932 10.0818C21.6043 10.0818 27.8237 11.6481 27.8237 13.5802C27.8237 15.5123 21.6043 17.0786 13.932 17.0786C6.25966 17.0786 0.0402832 15.5123 0.0402832 13.5802Z" fill="#FFADB6"/>
<path d="M0.041748 13.5204C0.041748 11.5882 6.26113 10.022 13.9334 10.022C21.6058 10.022 27.8251 11.5883 27.8251 13.5204C27.8251 15.4525 21.6058 17.0188 13.9334 17.0188C6.26113 17.0188 0.041748 15.4525 0.041748 13.5204Z" fill="#FFAEB7"/>
<path d="M0.0437012 13.4604C0.0437012 11.5282 6.26308 9.96191 13.9354 9.96191C21.6077 9.96191 27.8271 11.5282 27.8271 13.4604C27.8271 15.3924 21.6077 16.9588 13.9354 16.9588C6.26308 16.9588 0.0437012 15.3925 0.0437012 13.4605V13.4604Z" fill="#FFAFB8"/>
<path d="M0.045166 13.4001C0.045166 11.468 6.26454 9.90173 13.9369 9.90173C21.6092 9.90173 27.8286 11.468 27.8286 13.4001C27.8286 15.3322 21.6092 16.8986 13.9369 16.8986C6.26454 16.8986 0.045166 15.3323 0.045166 13.4001Z" fill="#FFAFB8"/>
<path d="M0.0466309 13.3401C0.0466309 11.4079 6.26601 9.84167 13.9383 9.84167C21.6106 9.84167 27.83 11.408 27.83 13.3401C27.83 15.2722 21.6106 16.8385 13.9383 16.8385C6.26601 16.8385 0.0466309 15.2722 0.0466309 13.3401Z" fill="#FFB0B9"/>
<path d="M0.0478516 13.2803C0.0478516 11.3481 6.26723 9.78186 13.9396 9.78186C21.6119 9.78186 27.8313 11.3482 27.8313 13.2803C27.8313 15.2123 21.6119 16.7787 13.9396 16.7787C6.26723 16.7787 0.0478516 15.2124 0.0478516 13.2804V13.2803Z" fill="#FFB1BA"/>
<path d="M0.0490723 13.2201C0.0490723 11.2879 6.26845 9.72168 13.9408 9.72168C21.6131 9.72168 27.8325 11.288 27.8325 13.2201C27.8325 15.1522 21.6131 16.7185 13.9408 16.7185C6.26845 16.7185 0.0490723 15.1522 0.0490723 13.2201Z" fill="#FFB1BB"/>
<path d="M0.0505371 13.1603C0.0505371 11.2282 6.26992 9.66187 13.9422 9.66187C21.6146 9.66187 27.8339 11.2282 27.8339 13.1603C27.8339 15.0924 21.6146 16.6588 13.9422 16.6588C6.26992 16.6588 0.0505371 15.0924 0.0505371 13.1603Z" fill="#FFB2BC"/>
<path d="M0.052002 13.1005C0.052002 11.1684 6.27138 9.60205 13.9437 9.60205C21.616 9.60205 27.8354 11.1684 27.8354 13.1005C27.8354 15.0326 21.616 16.5989 13.9437 16.5989C6.27138 16.5989 0.052002 15.0326 0.052002 13.1005Z" fill="#FFB3BD"/>
<path d="M0.0534668 13.0399C0.0534668 11.1078 6.27285 9.5415 13.9452 9.5415C21.6175 9.5415 27.8369 11.1078 27.8369 13.0399C27.8369 14.9721 21.6175 16.5384 13.9452 16.5384C6.27285 16.5384 0.0534668 14.972 0.0534668 13.0399Z" fill="#FFB4BE"/>
<path d="M0.0546875 12.9801C0.0546875 11.048 6.27407 9.48169 13.9464 9.48169C21.6187 9.48169 27.8381 11.048 27.8381 12.9801C27.8381 14.9123 21.6187 16.4786 13.9464 16.4786C6.27407 16.4786 0.0546875 14.9123 0.0546875 12.9801Z" fill="#FFB4BF"/>
<path d="M0.0559082 12.92C0.0559082 10.9878 6.27529 9.42151 13.9476 9.42151C21.6199 9.42151 27.8393 10.9878 27.8393 12.92C27.8393 14.8521 21.6199 16.4184 13.9476 16.4184C6.27529 16.4184 0.0559082 14.8521 0.0559082 12.92Z" fill="#FFB5C0"/>
<path d="M0.057373 12.8601C0.057373 10.928 6.27675 9.36169 13.9491 9.36169C21.6214 9.36169 27.8408 10.928 27.8408 12.8601C27.8408 14.7923 21.6214 16.3586 13.9491 16.3586C6.27675 16.3586 0.057373 14.7923 0.057373 12.8601Z" fill="#FFB6C1"/>
<path d="M0.0588379 12.8003C0.0588379 10.8682 6.27822 9.30188 13.9505 9.30188C21.6229 9.30188 27.8422 10.8682 27.8422 12.8003C27.8422 14.7325 21.6229 16.2988 13.9505 16.2988C6.27822 16.2988 0.0588379 14.7325 0.0588379 12.8003Z" fill="#FFB6C2"/>
<path d="M0.0603027 12.7403C0.0603027 10.8081 6.27968 9.24182 13.952 9.24182C21.6243 9.24182 27.8437 10.8081 27.8437 12.7403C27.8437 14.6724 21.6243 16.2387 13.952 16.2387C6.27968 16.2387 0.0603027 14.6724 0.0603027 12.7403Z" fill="#FFB7C3"/>
<path d="M0.0615234 12.6801C0.0615234 10.7479 6.2809 9.18164 13.9532 9.18164C21.6255 9.18164 27.8449 10.7479 27.8449 12.6801C27.8449 14.6122 21.6255 16.1785 13.9532 16.1785C6.2809 16.1785 0.0615234 14.6122 0.0615234 12.6801Z" fill="#FFB8C4"/>
<path d="M0.0627441 12.6198C0.0627441 10.6876 6.28212 9.12134 13.9544 9.12134C21.6268 9.12134 27.8461 10.6876 27.8461 12.6198C27.8461 14.5519 21.6268 16.1182 13.9544 16.1182C6.28212 16.1182 0.0627441 14.5519 0.0627441 12.6198Z" fill="#FFB8C5"/>
<path d="M0.064209 12.56C0.064209 10.6278 6.28359 9.06152 13.9559 9.06152C21.6282 9.06152 27.8476 10.6278 27.8476 12.56C27.8476 14.4921 21.6282 16.0584 13.9559 16.0584C6.28359 16.0584 0.064209 14.4921 0.064209 12.5602V12.56Z" fill="#FFB9C6"/>
<path d="M0.0656738 12.4999C0.0656738 10.5678 6.28505 9.00146 13.9574 9.00146C21.6297 9.00146 27.8491 10.5678 27.8491 12.4999C27.8491 14.432 21.6297 15.9984 13.9574 15.9984C6.28505 15.9984 0.0656738 14.432 0.0656738 12.4999Z" fill="#FFBAC7"/>
<path d="M0.067627 12.4397C0.067627 10.5076 6.287 8.94128 13.9593 8.94128C21.6316 8.94128 27.851 10.5076 27.851 12.4397C27.851 14.3719 21.6316 15.9382 13.9593 15.9382C6.287 15.9387 0.067627 14.3719 0.067627 12.4399V12.4397Z" fill="#FFBBC8"/>
<path d="M0.0690918 12.3803C0.0690918 10.4481 6.28847 8.88184 13.9608 8.88184C21.6331 8.88184 27.8525 10.4481 27.8525 12.3803C27.8525 14.3124 21.6331 15.8787 13.9608 15.8787C6.28847 15.8787 0.0690918 14.3124 0.0690918 12.3803Z" fill="#FFBBC9"/>
<path d="M0.0705566 12.3199C0.0705566 10.3877 6.28994 8.82141 13.9623 8.82141C21.6346 8.82141 27.854 10.3877 27.854 12.3199C27.854 14.252 21.6346 15.8183 13.9623 15.8183C6.28994 15.8183 0.0705566 14.252 0.0705566 12.3199Z" fill="#FFBCCA"/>
<path d="M0.0717773 12.26C0.0717773 10.3279 6.29116 8.7616 13.9635 8.7616C21.6358 8.7616 27.8552 10.3279 27.8552 12.26C27.8552 14.1922 21.6358 15.7585 13.9635 15.7585C6.29116 15.7585 0.0717773 14.1921 0.0717773 12.26Z" fill="#FFBDCB"/>
<path d="M0.072998 12.1994C0.072998 10.2672 6.29238 8.70093 13.9647 8.70093C21.637 8.70093 27.8564 10.2672 27.8564 12.1994C27.8564 14.1315 21.637 15.6978 13.9647 15.6978C6.29238 15.6978 0.072998 14.1315 0.072998 12.1994Z" fill="#FFBDCC"/>
<path d="M0.0744629 12.14C0.0744629 10.2079 6.29384 8.6416 13.9662 8.6416C21.6385 8.6416 27.8579 10.2079 27.8579 12.14C27.8579 14.0722 21.6385 15.6385 13.9662 15.6385C6.29384 15.6385 0.0744629 14.0722 0.0744629 12.1402V12.14Z" fill="#FFBECD"/>
<path d="M0.0751953 12.0795C0.0751953 10.1474 6.29457 8.58105 13.9669 8.58105C21.6392 8.58105 27.8586 10.1474 27.8586 12.0795C27.8586 14.0116 21.6392 15.578 13.9669 15.578C6.29457 15.578 0.0751953 14.0116 0.0751953 12.0795Z" fill="#FFBFCE"/>
<path d="M0.076416 12.0197C0.076416 10.0875 6.29579 8.52124 13.9681 8.52124C21.6404 8.52124 27.8598 10.0875 27.8598 12.0197C27.8598 13.9518 21.6404 15.5181 13.9681 15.5181C6.29579 15.5182 0.076416 13.9518 0.076416 12.0197Z" fill="#FFBFCF"/>
<path d="M0.0786133 11.9601C0.0786133 10.028 6.29799 8.46167 13.9703 8.46167C21.6426 8.46167 27.862 10.028 27.862 11.9601C27.862 13.8923 21.6426 15.4586 13.9703 15.4586C6.29799 15.4586 0.0786133 13.8923 0.0786133 11.9601Z" fill="#FFC0D0"/>
<path d="M0.079834 11.8997C0.079834 9.96755 6.29921 8.40125 13.9715 8.40125C21.6439 8.40125 27.8632 9.96755 27.8632 11.8997C27.8632 13.8318 21.6439 15.3981 13.9715 15.3981C6.29921 15.3981 0.079834 13.8318 0.079834 11.8997Z" fill="#FFC1D1"/>
<path d="M0.0812988 11.8399C0.0812988 9.90773 6.30068 8.34143 13.973 8.34143C21.6453 8.34143 27.8647 9.90773 27.8647 11.8399C27.8647 13.772 21.6453 15.3383 13.973 15.3383C6.30068 15.3383 0.0812988 13.772 0.0812988 11.8399Z" fill="#FFC2D2"/>
<path d="M0.0827637 11.7794C0.0827637 9.84731 6.30214 8.28101 13.9745 8.28101C21.6468 8.28101 27.8662 9.84731 27.8662 11.7794C27.8662 13.7116 21.6468 15.2779 13.9745 15.2779C6.30214 15.2779 0.0827637 13.7115 0.0827637 11.7794Z" fill="#FFC2D3"/>
<path d="M0.0842285 11.72C0.0842285 9.78786 6.30361 8.22156 13.9759 8.22156C21.6482 8.22156 27.8676 9.78786 27.8676 11.72C27.8676 13.6521 21.6482 15.2184 13.9759 15.2184C6.30409 15.2184 0.0842285 13.6521 0.0842285 11.7202V11.72Z" fill="#FFC3D4"/>
<path d="M0.0854492 11.6598C0.0854492 9.72768 6.30483 8.16138 13.9771 8.16138C21.6495 8.16138 27.8688 9.72768 27.8688 11.6598C27.8688 13.592 21.6495 15.1583 13.9771 15.1583C6.30483 15.1583 0.0854492 13.592 0.0854492 11.6598Z" fill="#FFC4D5"/>
<path d="M0.0866699 11.5995C0.0866699 9.66738 6.30605 8.10107 13.9784 8.10107C21.6507 8.10107 27.8701 9.66738 27.8701 11.5995C27.8701 13.5317 21.6507 15.098 13.9784 15.098C6.30605 15.098 0.0866699 13.5317 0.0866699 11.5995Z" fill="#FFC4D6"/>
<path d="M27.8715 11.5397C27.8715 13.4718 21.6521 15.0381 13.9798 15.0381C6.30751 15.0381 0.0881348 13.4718 0.0881348 11.5397C0.0881348 9.60761 6.30751 8.04126 13.9798 8.04126C21.6521 8.04126 27.8715 9.60761 27.8715 11.5397Z" fill="#FFC5D7"/>
<path d="M28 10.4594C28 12.5964 21.7719 14.3289 14.0895 14.3289C6.40702 14.3289 0.178955 12.5964 0.178955 10.4594C0.178955 8.32228 6.40702 6.58984 14.0895 6.58984C21.7719 6.58984 28 8.32228 28 10.4594Z" fill="#990000"/>
<path d="M14.089 14.317C6.40653 14.317 0.178467 12.5845 0.178467 10.4475C0.178467 8.31036 6.40653 6.57788 14.089 6.57788C21.7714 6.57788 27.9995 8.31036 27.9995 10.4475C27.9995 12.5845 21.7714 14.317 14.089 14.317Z" fill="#9A0000"/>
<path d="M14.089 14.3044C6.40653 14.3044 0.178467 12.5719 0.178467 10.4348C0.178467 8.29774 6.40653 6.56531 14.089 6.56531C21.7714 6.56531 27.9995 8.29774 27.9995 10.4348C27.9995 12.5719 21.7714 14.3044 14.089 14.3044Z" fill="#9B0000"/>
<path d="M14.089 14.2919C6.40653 14.2919 0.178467 12.5595 0.178467 10.4224C0.178467 8.28529 6.40653 6.55286 14.089 6.55286C21.7714 6.55286 27.9995 8.28529 27.9995 10.4224C27.9995 12.5595 21.7714 14.2919 14.089 14.2919Z" fill="#9C0000"/>
<path d="M14.089 14.2797C6.40653 14.2797 0.178467 12.5472 0.178467 10.4102C0.178467 8.27308 6.40653 6.54065 14.089 6.54065C21.7714 6.54065 27.9995 8.27308 27.9995 10.4102C27.9995 12.5472 21.7714 14.2797 14.089 14.2797Z" fill="#9D0000"/>
<path d="M14.089 14.2678C6.40653 14.2678 0.178467 12.5353 0.178467 10.3983C0.178467 8.26112 6.40653 6.52869 14.089 6.52869C21.7714 6.52869 27.9995 8.26112 27.9995 10.3983C27.9995 12.5353 21.7714 14.2678 14.089 14.2678Z" fill="#9E0000"/>
<path d="M14.0882 14.2552C6.4058 14.2552 0.177734 12.5227 0.177734 10.3857C0.177734 8.24855 6.4058 6.51611 14.0882 6.51611C21.7707 6.51611 27.9988 8.24855 27.9988 10.3857C27.9988 12.5227 21.7707 14.2552 14.0882 14.2552Z" fill="#9F0000"/>
<path d="M14.0882 14.2429C6.4058 14.2429 0.177734 12.5104 0.177734 10.3733C0.177734 8.23622 6.4058 6.50378 14.0882 6.50378C21.7707 6.50378 27.9988 8.23622 27.9988 10.3733C27.9988 12.5104 21.7707 14.2429 14.0882 14.2429Z" fill="#A00000"/>
<path d="M14.0873 14.2304C6.40482 14.2304 0.176758 12.4979 0.176758 10.3609C0.176758 8.22377 6.40482 6.49133 14.0873 6.49133C21.7697 6.49133 27.9978 8.22377 27.9978 10.3609C27.9978 12.4979 21.7697 14.2304 14.0873 14.2304Z" fill="#A10000"/>
<path d="M14.0873 14.2179C6.40482 14.2179 0.176758 12.4854 0.176758 10.3483C0.176758 8.21119 6.40482 6.47876 14.0873 6.47876C21.7697 6.47876 27.9978 8.21119 27.9978 10.3483C27.9978 12.4854 21.7697 14.2179 14.0873 14.2179Z" fill="#A20000"/>
<path d="M14.0873 14.2062C6.40482 14.2062 0.176758 12.4738 0.176758 10.3367C0.176758 8.1996 6.40482 6.46716 14.0873 6.46716C21.7697 6.46716 27.9978 8.19965 27.9978 10.3367C27.9978 12.4737 21.7697 14.2062 14.0873 14.2062Z" fill="#A30000"/>
<path d="M14.0873 14.1937C6.40482 14.1937 0.176758 12.4612 0.176758 10.3241C0.176758 8.18702 6.40482 6.45459 14.0873 6.45459C21.7697 6.45459 27.9978 8.18702 27.9978 10.3241C27.9978 12.4612 21.7697 14.1937 14.0873 14.1937Z" fill="#A40000"/>
<path d="M14.0868 14.1818C6.40433 14.1818 0.17627 12.4493 0.17627 10.3122C0.17627 8.17506 6.40433 6.44263 14.0868 6.44263C21.7692 6.44263 27.9973 8.17506 27.9973 10.3122C27.9973 12.4493 21.7692 14.1818 14.0868 14.1818Z" fill="#A50000"/>
<path d="M14.0868 14.1689C6.40433 14.1689 0.17627 12.4364 0.17627 10.2994C0.17627 8.16224 6.40433 6.42981 14.0868 6.42981C21.7692 6.42981 27.9973 8.16224 27.9973 10.2994C27.9973 12.4364 21.7692 14.1689 14.0868 14.1689Z" fill="#A60000"/>
<path d="M14.086 14.1569C6.4036 14.1569 0.175537 12.4244 0.175537 10.2874C0.175537 8.15028 6.4036 6.41785 14.086 6.41785C21.7685 6.41785 27.9966 8.15028 27.9966 10.2874C27.9966 12.4244 21.7685 14.1569 14.086 14.1569Z" fill="#A70000"/>
<path d="M14.086 14.1444C6.4036 14.1444 0.175537 12.4121 0.175537 10.2752C0.175537 8.13807 6.4036 6.40564 14.086 6.40564C21.7685 6.40564 27.9966 8.13807 27.9966 10.2752C27.9966 12.4122 21.7685 14.1447 14.086 14.1447V14.1444Z" fill="#A80000"/>
<path d="M14.0856 14.1324C6.40311 14.1324 0.175049 12.4 0.175049 10.2629C0.175049 8.12575 6.40311 6.39331 14.0856 6.39331C21.768 6.39331 27.9961 8.12575 27.9961 10.2629C27.9961 12.4 21.768 14.1324 14.0856 14.1324Z" fill="#A90000"/>
<path d="M14.0856 14.1199C6.40311 14.1199 0.175049 12.3873 0.175049 10.2503C0.175049 8.11317 6.40311 6.38074 14.0856 6.38074C21.768 6.38074 27.9961 8.11322 27.9961 10.2503C27.9961 12.3873 21.768 14.1199 14.0856 14.1199Z" fill="#AA0000"/>
<path d="M14.0856 14.1079C6.40311 14.1079 0.175049 12.3754 0.175049 10.2383C0.175049 8.10121 6.40311 6.36877 14.0856 6.36877C21.768 6.36877 27.9961 8.10121 27.9961 10.2383C27.9961 12.3753 21.768 14.1079 14.0856 14.1079Z" fill="#AB0000"/>
<path d="M14.0856 14.0952C6.40311 14.0952 0.175049 12.3627 0.175049 10.2257C0.175049 8.08856 6.40311 6.35608 14.0856 6.35608C21.768 6.35608 27.9961 8.08856 27.9961 10.2257C27.9961 12.3627 21.768 14.0952 14.0856 14.0952Z" fill="#AC0000"/>
<path d="M14.0846 14.0832C6.40213 14.0832 0.174072 12.3508 0.174072 10.2137C0.174072 8.07655 6.40213 6.34412 14.0846 6.34412C21.767 6.34412 27.9951 8.07655 27.9951 10.2137C27.9951 12.3508 21.767 14.0832 14.0846 14.0832Z" fill="#AD0000"/>
<path d="M14.0846 14.0707C6.40213 14.0707 0.174072 12.3381 0.174072 10.2011C0.174072 8.06398 6.40213 6.33154 14.0846 6.33154C21.767 6.33154 27.9951 8.06398 27.9951 10.2011C27.9951 12.3381 21.767 14.0707 14.0846 14.0707Z" fill="#AE0000"/>
<path d="M14.0846 14.0587C6.40213 14.0587 0.174072 12.3262 0.174072 10.1891C0.174072 8.05201 6.40213 6.31958 14.0846 6.31958C21.767 6.31958 27.9951 8.05201 27.9951 10.1891C27.9951 12.3262 21.767 14.0587 14.0846 14.0587Z" fill="#AF0000"/>
<path d="M14.0838 14.0459C6.4014 14.0459 0.17334 12.3134 0.17334 10.1764C0.17334 8.0392 6.4014 6.30676 14.0838 6.30676C21.7663 6.30676 27.9944 8.0392 27.9944 10.1764C27.9944 12.3134 21.7663 14.0459 14.0838 14.0459Z" fill="#B00000"/>
<path d="M14.0838 14.0339C6.4014 14.0339 0.17334 12.3014 0.17334 10.1644C0.17334 8.02723 6.4014 6.2948 14.0838 6.2948C21.7663 6.2948 27.9944 8.02723 27.9944 10.1644C27.9944 12.3014 21.7663 14.0339 14.0838 14.0339Z" fill="#B10000"/>
<path d="M14.0838 14.0213C6.4014 14.0213 0.17334 12.2888 0.17334 10.1518C0.17334 8.01466 6.4014 6.28223 14.0838 6.28223C21.7663 6.28223 27.9944 8.01466 27.9944 10.1518C27.9944 12.2888 21.7663 14.0213 14.0838 14.0213Z" fill="#B20000"/>
<path d="M14.0838 14.0094C6.4014 14.0094 0.17334 12.2769 0.17334 10.1399C0.17334 8.00275 6.4014 6.27026 14.0838 6.27026C21.7663 6.27026 27.9944 8.00275 27.9944 10.1399C27.9944 12.2769 21.7663 14.0094 14.0838 14.0094Z" fill="#B30000"/>
<path d="M14.0834 13.9968C6.40091 13.9968 0.172852 12.2643 0.172852 10.1273C0.172852 7.99012 6.40091 6.25769 14.0834 6.25769C21.7658 6.25769 27.9939 7.99012 27.9939 10.1273C27.9939 12.2643 21.7658 13.9968 14.0834 13.9968Z" fill="#B40000"/>
<path d="M14.0834 13.9849C6.40091 13.9849 0.172852 12.2523 0.172852 10.1153C0.172852 7.97816 6.40091 6.24573 14.0834 6.24573C21.7658 6.24573 27.9939 7.97821 27.9939 10.1153C27.9939 12.2523 21.7658 13.9849 14.0834 13.9849Z" fill="#B50000"/>
<path d="M14.0826 13.9724C6.40018 13.9724 0.172119 12.2399 0.172119 10.1028C0.172119 7.96571 6.40018 6.23328 14.0826 6.23328C21.7651 6.23328 27.9931 7.96571 27.9931 10.1028C27.9932 12.2399 21.7651 13.9724 14.0826 13.9724Z" fill="#B60000"/>
<path d="M14.0826 13.9602C6.40018 13.9602 0.172119 12.2277 0.172119 10.0907C0.172119 7.9535 6.40018 6.22107 14.0826 6.22107C21.7651 6.22107 27.9931 7.9535 27.9931 10.0907C27.9932 12.2277 21.7651 13.9602 14.0826 13.9602Z" fill="#B70000"/>
<path d="M14.0826 13.9476C6.40018 13.9476 0.172119 12.2151 0.172119 10.0781C0.172119 7.94093 6.40018 6.2085 14.0826 6.2085C21.7651 6.2085 27.9931 7.94093 27.9931 10.0781C27.9931 12.2151 21.7651 13.9476 14.0826 13.9476Z" fill="#B80000"/>
<path d="M14.0826 13.9357C6.40018 13.9357 0.172119 12.2031 0.172119 10.0661C0.172119 7.92897 6.40018 6.19653 14.0826 6.19653C21.7651 6.19653 27.9931 7.92897 27.9931 10.0661C27.9931 12.2031 21.7651 13.9357 14.0826 13.9357Z" fill="#B90000"/>
<path d="M14.0826 13.9228C6.40018 13.9228 0.172119 12.1904 0.172119 10.0533C0.172119 7.9162 6.40018 6.18372 14.0826 6.18372C21.7651 6.18372 27.9931 7.9162 27.9931 10.0533C27.9931 12.1904 21.7651 13.9228 14.0826 13.9228Z" fill="#BA0000"/>
<path d="M14.0821 13.9109C6.39969 13.9109 0.171631 12.1784 0.171631 10.0413C0.171631 7.90419 6.39969 6.17175 14.0821 6.17175C21.7646 6.17175 27.9927 7.90419 27.9927 10.0413C27.9927 12.1784 21.7646 13.9109 14.0821 13.9109Z" fill="#BB0000"/>
<path d="M14.0821 13.8983C6.39969 13.8983 0.171631 12.1658 0.171631 10.0288C0.171631 7.89161 6.39969 6.15918 14.0821 6.15918C21.7646 6.15918 27.9927 7.89166 27.9927 10.0288C27.9927 12.1658 21.7646 13.8983 14.0821 13.8983Z" fill="#BC0000"/>
<path d="M14.0814 13.8863C6.39896 13.8863 0.170898 12.1538 0.170898 10.0168C0.170898 7.87965 6.39896 6.14722 14.0814 6.14722C21.7639 6.14722 27.9919 7.87965 27.9919 10.0168C27.9919 12.1538 21.7639 13.8863 14.0814 13.8863Z" fill="#BD0000"/>
<path d="M14.0814 13.8738C6.39896 13.8738 0.170898 12.1413 0.170898 10.0042C0.170898 7.86713 6.39896 6.13464 14.0814 6.13464C21.7639 6.13464 27.9919 7.86713 27.9919 10.0042C27.9919 12.1413 21.7639 13.8738 14.0814 13.8738Z" fill="#BE0000"/>
<path d="M14.0804 13.8618C6.39798 13.8618 0.169922 12.1293 0.169922 9.99227C0.169922 7.85512 6.39798 6.12268 14.0804 6.12268C21.7629 6.12268 27.9909 7.85512 27.9909 9.99227C27.991 12.1293 21.7629 13.8618 14.0804 13.8618Z" fill="#BF0000"/>
<path d="M14.0804 13.8491C6.39798 13.8491 0.169922 12.1166 0.169922 9.97953C0.169922 7.84242 6.39798 6.10999 14.0804 6.10999C21.7629 6.10999 27.9909 7.84242 27.9909 9.97953C27.991 12.1166 21.7629 13.8491 14.0804 13.8491Z" fill="#C00000"/>
<path d="M14.0804 13.8368C6.39798 13.8368 0.169922 12.1043 0.169922 9.9672C0.169922 7.83009 6.39798 6.09766 14.0804 6.09766C21.7629 6.09766 27.9909 7.83009 27.9909 9.9672C27.9909 12.1043 21.7629 13.8368 14.0804 13.8368Z" fill="#C10000"/>
<path d="M14.0804 13.8246C6.39798 13.8246 0.169922 12.0921 0.169922 9.95504C0.169922 7.81788 6.39798 6.08545 14.0804 6.08545C21.7629 6.08545 27.9909 7.81788 27.9909 9.95504C27.9909 12.0921 21.7629 13.8246 14.0804 13.8246Z" fill="#C20000"/>
<path d="M14.0804 13.8123C6.39798 13.8123 0.169922 12.0798 0.169922 9.94271C0.169922 7.80555 6.39798 6.07312 14.0804 6.07312C21.7629 6.07312 27.9909 7.8056 27.9909 9.94271C27.9909 12.0798 21.7629 13.8123 14.0804 13.8123Z" fill="#C30000"/>
<path d="M14.0799 13.7998C6.39749 13.7998 0.169434 12.0673 0.169434 9.93021C0.169434 7.7931 6.39749 6.06067 14.0799 6.06067C21.7624 6.06067 27.9905 7.7931 27.9905 9.93021C27.9905 12.0673 21.7624 13.7998 14.0799 13.7998Z" fill="#C40000"/>
<path d="M14.0799 13.7876C6.39749 13.7876 0.169434 12.0551 0.169434 9.91805C0.169434 7.78094 6.39749 6.04846 14.0799 6.04846C21.7624 6.04846 27.9905 7.78094 27.9905 9.91805C27.9905 12.0551 21.7624 13.7876 14.0799 13.7876Z" fill="#C50000"/>
<path d="M14.0792 13.7753C6.39676 13.7753 0.168701 12.0428 0.168701 9.90572C0.168701 7.76857 6.39676 6.03613 14.0792 6.03613C21.7617 6.03613 27.9897 7.76857 27.9897 9.90572C27.9897 12.0428 21.7617 13.7753 14.0792 13.7753Z" fill="#C60000"/>
<path d="M14.0792 13.7631C6.39676 13.7631 0.168701 12.0306 0.168701 9.89351C0.168701 7.75636 6.39676 6.02393 14.0792 6.02393C21.7617 6.02393 27.9897 7.75641 27.9897 9.89351C27.9897 12.0306 21.7617 13.7631 14.0792 13.7631Z" fill="#C70000"/>
<path d="M14.0787 13.7507C6.39627 13.7507 0.168213 12.0182 0.168213 9.88114C0.168213 7.74403 6.39627 6.0116 14.0787 6.0116C21.7612 6.0116 27.9892 7.74403 27.9892 9.88114C27.9893 12.0182 21.7612 13.7507 14.0787 13.7507Z" fill="#C80000"/>
<path d="M14.0787 13.738C6.39627 13.738 0.168213 12.0055 0.168213 9.86849C0.168213 7.73138 6.39627 5.9989 14.0787 5.9989C21.7612 5.9989 27.9892 7.73138 27.9892 9.86849C27.9893 12.0055 21.7612 13.738 14.0787 13.738Z" fill="#C90000"/>
<path d="M14.0787 13.7261C6.39627 13.7261 0.168213 11.9936 0.168213 9.85653C0.168213 7.71937 6.39627 5.98694 14.0787 5.98694C21.7612 5.98694 27.9892 7.71942 27.9892 9.85653C27.9892 11.9936 21.7612 13.7261 14.0787 13.7261Z" fill="#CA0000"/>
<path d="M14.0787 13.7137C6.39627 13.7137 0.168213 11.9812 0.168213 9.84415C0.168213 7.70704 6.39627 5.97461 14.0787 5.97461C21.7612 5.97461 27.9892 7.70704 27.9892 9.84415C27.9892 11.9812 21.7612 13.7137 14.0787 13.7137Z" fill="#CB0000"/>
<path d="M14.0777 13.7016C6.3953 13.7016 0.167236 11.969 0.167236 9.83199C0.167236 7.69489 6.3953 5.9624 14.0777 5.9624C21.7602 5.9624 27.9883 7.69489 27.9883 9.83199C27.9883 11.969 21.7602 13.7016 14.0777 13.7016Z" fill="#CC0000"/>
<path d="M14.0777 13.6892C6.3953 13.6892 0.167236 11.9567 0.167236 9.81966C0.167236 7.68251 6.3953 5.95007 14.0777 5.95007C21.7602 5.95007 27.9883 7.68251 27.9883 9.81966C27.9883 11.9567 21.7602 13.6892 14.0777 13.6892Z" fill="#CC0000"/>
<path d="M14.0777 13.6768C6.3953 13.6768 0.167236 11.9443 0.167236 9.80721C0.167236 7.67006 6.3953 5.93762 14.0777 5.93762C21.7602 5.93762 27.9883 7.6701 27.9883 9.80721C27.9883 11.9443 21.7602 13.6768 14.0777 13.6768Z" fill="#CD0000"/>
<path d="M14.0777 13.6645C6.3953 13.6645 0.167236 11.932 0.167236 9.79496C0.167236 7.65785 6.3953 5.92542 14.0777 5.92542C21.7602 5.92542 27.9883 7.65785 27.9883 9.79496C27.9883 11.932 21.7602 13.6645 14.0777 13.6645Z" fill="#CE0000"/>
<path d="M14.077 13.6523C6.39457 13.6523 0.166504 11.9197 0.166504 9.78267C0.166504 7.64557 6.39457 5.91309 14.077 5.91309C21.7595 5.91309 27.9875 7.64557 27.9875 9.78267C27.9875 11.9197 21.7595 13.6523 14.077 13.6523Z" fill="#CF0000"/>
<path d="M14.077 13.64C6.39457 13.64 0.166504 11.9075 0.166504 9.77047C0.166504 7.63331 6.39457 5.90088 14.077 5.90088C21.7595 5.90088 27.9875 7.63331 27.9875 9.77047C27.9876 11.9075 21.7595 13.64 14.077 13.64Z" fill="#D00000"/>
<path d="M14.077 13.6277C6.39457 13.6277 0.166504 11.8952 0.166504 9.75814C0.166504 7.62098 6.39457 5.88855 14.077 5.88855C21.7595 5.88855 27.9875 7.62103 27.9875 9.75814C27.9876 11.8952 21.7595 13.6277 14.077 13.6277Z" fill="#D10000"/>
<path d="M14.0758 13.615C6.39334 13.615 0.165283 11.8825 0.165283 9.74544C0.165283 7.60834 6.39334 5.87585 14.0758 5.87585C21.7582 5.87585 27.9863 7.60834 27.9863 9.74544C27.9863 11.8825 21.7582 13.615 14.0758 13.615Z" fill="#D20000"/>
<path d="M14.0758 13.6031C6.39334 13.6031 0.165283 11.8705 0.165283 9.73348C0.165283 7.59633 6.39334 5.86389 14.0758 5.86389C21.7582 5.86389 27.9863 7.59633 27.9863 9.73348C27.9863 11.8705 21.7582 13.6031 14.0758 13.6031Z" fill="#D30000"/>
<path d="M14.0758 13.5907C6.39334 13.5907 0.165283 11.8582 0.165283 9.72115C0.165283 7.584 6.39334 5.85156 14.0758 5.85156C21.7582 5.85156 27.9863 7.58405 27.9863 9.72115C27.9863 11.8582 21.7582 13.5907 14.0758 13.5907Z" fill="#D40000"/>
<path d="M14.0758 13.5785C6.39334 13.5785 0.165283 11.846 0.165283 9.7089C0.165283 7.57179 6.39334 5.83936 14.0758 5.83936C21.7582 5.83936 27.9863 7.57179 27.9863 9.7089C27.9863 11.846 21.7582 13.5785 14.0758 13.5785Z" fill="#D50000"/>
<path d="M14.0753 13.5657C6.39286 13.5657 0.164795 11.8332 0.164795 9.69613C0.164795 7.55902 6.39286 5.82654 14.0753 5.82654C21.7578 5.82654 27.9858 7.55902 27.9858 9.69613C27.9858 11.8332 21.7578 13.5657 14.0753 13.5657Z" fill="#D60000"/>
<path d="M14.0753 13.5538C6.39286 13.5538 0.164795 11.8212 0.164795 9.68416C0.164795 7.54701 6.39286 5.81458 14.0753 5.81458C21.7578 5.81458 27.9858 7.54701 27.9858 9.68416C27.9858 11.8212 21.7582 13.5538 14.0753 13.5538Z" fill="#D70000"/>
<path d="M14.0746 13.5411C6.39212 13.5411 0.164062 11.8086 0.164062 9.67159C0.164062 7.53444 6.39212 5.802 14.0746 5.802C21.757 5.802 27.9851 7.53448 27.9851 9.67159C27.9851 11.8086 21.757 13.5411 14.0746 13.5411Z" fill="#D80000"/>
<path d="M14.0746 13.5292C6.39212 13.5292 0.164062 11.7966 0.164062 9.65963C0.164062 7.52247 6.39212 5.79004 14.0746 5.79004C21.757 5.79004 27.9851 7.52252 27.9851 9.65963C27.9851 11.7966 21.757 13.5292 14.0746 13.5292Z" fill="#D90000"/>
<path d="M14.0746 13.5166C6.39212 13.5166 0.164062 11.7841 0.164062 9.64705C0.164062 7.50995 6.39212 5.77747 14.0746 5.77747C21.757 5.77747 27.9851 7.50995 27.9851 9.64705C27.9851 11.7841 21.7575 13.5166 14.0746 13.5166Z" fill="#DA0000"/>
<path d="M14.0746 13.5046C6.39212 13.5046 0.164062 11.7722 0.164062 9.63509C0.164062 7.49794 6.39212 5.7655 14.0746 5.7655C21.757 5.7655 27.9851 7.49799 27.9851 9.63509C27.9851 11.7722 21.757 13.5046 14.0746 13.5046Z" fill="#DB0000"/>
<path d="M14.0746 13.4919C6.39212 13.4919 0.164062 11.7595 0.164062 9.6224C0.164062 7.48524 6.39212 5.75281 14.0746 5.75281C21.757 5.75281 27.9851 7.48524 27.9851 9.6224C27.9851 11.7595 21.757 13.4919 14.0746 13.4919Z" fill="#DC0000"/>
<path d="M14.0746 13.4802C6.39212 13.4802 0.164062 11.7477 0.164062 9.61068C0.164062 7.47352 6.39212 5.74109 14.0746 5.74109C21.757 5.74109 27.9851 7.47357 27.9851 9.61068C27.9851 11.7477 21.757 13.4802 14.0746 13.4802Z" fill="#DD0000"/>
<path d="M14.0746 13.4674C6.39212 13.4674 0.164062 11.7349 0.164062 9.59786C0.164062 7.46071 6.39212 5.72827 14.0746 5.72827C21.757 5.72827 27.9851 7.46071 27.9851 9.59786C27.9851 11.7349 21.7575 13.4674 14.0746 13.4674Z" fill="#DE0000"/>
<path d="M14.0731 13.4557C6.39066 13.4557 0.162598 11.7232 0.162598 9.58614C0.162598 7.44904 6.39066 5.71655 14.0731 5.71655C21.7556 5.71655 27.9836 7.44904 27.9836 9.58614C27.9836 11.7232 21.7556 13.4557 14.0731 13.4557Z" fill="#DF0000"/>
<path d="M14.0731 13.4431C6.39066 13.4431 0.162598 11.7106 0.162598 9.57357C0.162598 7.43641 6.39066 5.70398 14.0731 5.70398C21.7556 5.70398 27.9836 7.43646 27.9836 9.57357C27.9836 11.7106 21.7556 13.4431 14.0731 13.4431Z" fill="#E00000"/>
<path d="M14.0731 13.4305C6.39066 13.4305 0.162598 11.6979 0.162598 9.56087C0.162598 7.42377 6.39066 5.69128 14.0731 5.69128C21.7556 5.69128 27.9836 7.42377 27.9836 9.56087C27.9836 11.6979 21.756 13.4305 14.0731 13.4305Z" fill="#E10000"/>
<path d="M14.0731 13.4185C6.39066 13.4185 0.162598 11.686 0.162598 9.54891C0.162598 7.41176 6.39066 5.67932 14.0731 5.67932C21.7556 5.67932 27.9836 7.4118 27.9836 9.54891C27.9836 11.686 21.7556 13.4185 14.0731 13.4185Z" fill="#E20000"/>
<path d="M14.0724 13.4065C6.38993 13.4065 0.161865 11.674 0.161865 9.53695C0.161865 7.39984 6.38993 5.66736 14.0724 5.66736C21.7548 5.66736 27.9829 7.39984 27.9829 9.53695C27.9829 11.674 21.7548 13.4065 14.0724 13.4065Z" fill="#E30000"/>
<path d="M14.0724 13.3939C6.38993 13.3939 0.161865 11.6614 0.161865 9.52437C0.161865 7.38722 6.38993 5.65479 14.0724 5.65479C21.7548 5.65479 27.9829 7.38727 27.9829 9.52437C27.9829 11.6614 21.7548 13.3939 14.0724 13.3939Z" fill="#E40000"/>
<path d="M14.0724 13.3811C6.38993 13.3811 0.161865 11.6486 0.161865 9.51156C0.161865 7.3744 6.38993 5.64197 14.0724 5.64197C21.7548 5.64197 27.9829 7.3744 27.9829 9.51156C27.9829 11.6486 21.7548 13.3811 14.0724 13.3811Z" fill="#E50000"/>
<path d="M14.0719 13.3692C6.38944 13.3692 0.161377 11.6367 0.161377 9.49959C0.161377 7.36244 6.38944 5.63 14.0719 5.63C21.7543 5.63 27.9824 7.36249 27.9824 9.49959C27.9824 11.6367 21.7543 13.3692 14.0719 13.3692Z" fill="#E60000"/>
<path d="M14.0719 13.3566C6.38944 13.3566 0.161377 11.6241 0.161377 9.48702C0.161377 7.34987 6.38944 5.61743 14.0719 5.61743C21.7543 5.61743 27.9824 7.34987 27.9824 9.48702C27.9824 11.6241 21.7548 13.3566 14.0719 13.3566Z" fill="#E70000"/>
<path d="M14.0709 13.3446C6.38846 13.3446 0.1604 11.6121 0.1604 9.47506C0.1604 7.3379 6.38846 5.60547 14.0709 5.60547C21.7534 5.60547 27.9814 7.33795 27.9814 9.47506C27.9814 11.6121 21.7538 13.3446 14.0709 13.3446Z" fill="#E80000"/>
<path d="M14.0709 13.3321C6.38846 13.3321 0.1604 11.5995 0.1604 9.46248C0.1604 7.32533 6.38846 5.5929 14.0709 5.5929C21.7534 5.5929 27.9814 7.32538 27.9814 9.46248C27.9814 11.5995 21.7534 13.3321 14.0709 13.3321Z" fill="#E90000"/>
<path d="M14.0709 13.3201C6.38846 13.3201 0.1604 11.5876 0.1604 9.45052C0.1604 7.31341 6.38846 5.58093 14.0709 5.58093C21.7534 5.58093 27.9814 7.31341 27.9814 9.45052C27.9814 11.5876 21.7534 13.3201 14.0709 13.3201Z" fill="#EA0000"/>
<path d="M14.0709 13.3074C6.38846 13.3074 0.1604 11.5748 0.1604 9.43783C0.1604 7.30067 6.38846 5.56824 14.0709 5.56824C21.7534 5.56824 27.9814 7.30072 27.9814 9.43783C27.9814 11.5748 21.7538 13.3074 14.0709 13.3074Z" fill="#EB0000"/>
<path d="M14.0702 13.2955C6.38773 13.2955 0.159668 11.5629 0.159668 9.42586C0.159668 7.28876 6.38773 5.55627 14.0702 5.55627C21.7526 5.55627 27.9807 7.28876 27.9807 9.42586C27.9807 11.5629 21.7531 13.2955 14.0702 13.2955Z" fill="#EC0000"/>
<path d="M14.0702 13.2829C6.38773 13.2829 0.159668 11.5503 0.159668 9.41329C0.159668 7.27614 6.38773 5.5437 14.0702 5.5437C21.7526 5.5437 27.9807 7.27618 27.9807 9.41329C27.9807 11.5503 21.7526 13.2829 14.0702 13.2829Z" fill="#ED0000"/>
<path d="M14.0697 13.2709C6.38724 13.2709 0.15918 11.5384 0.15918 9.40133C0.15918 7.26417 6.38724 5.53174 14.0697 5.53174C21.7521 5.53174 27.9802 7.26417 27.9802 9.40133C27.9802 11.5384 21.7521 13.2709 14.0697 13.2709Z" fill="#EE0000"/>
<path d="M13.9105 12.8301C6.22806 12.8301 0 11.0975 0 8.96053C0 6.82338 6.22806 5.09094 13.9105 5.09094C21.593 5.09094 27.821 6.82343 27.821 8.96053C27.821 11.0975 21.593 12.8301 13.9105 12.8301Z" fill="#EF0000"/>
<path d="M14.0697 13.2461C6.38724 13.2461 0.15918 11.5136 0.15918 9.37655C0.15918 7.23939 6.38724 5.50696 14.0697 5.50696C21.7521 5.50696 27.9802 7.23944 27.9802 9.37655C27.9802 11.5136 21.7521 13.2461 14.0697 13.2461Z" fill="#F00000"/>
<path d="M14.0697 13.2336C6.38724 13.2336 0.15918 11.501 0.15918 9.36397C0.15918 7.22682 6.38724 5.49438 14.0697 5.49438C21.7521 5.49438 27.9802 7.22687 27.9802 9.36397C27.9802 11.501 21.7526 13.2336 14.0697 13.2336Z" fill="#F10000"/>
<path d="M14.069 13.2216C6.38651 13.2216 0.158447 11.4891 0.158447 9.35201C0.158447 7.21486 6.38651 5.48242 14.069 5.48242C21.7514 5.48242 27.9795 7.2149 27.9795 9.35201C27.9795 11.4891 21.7519 13.2216 14.069 13.2216Z" fill="#F20000"/>
<path d="M14.069 13.209C6.38651 13.209 0.158447 11.4764 0.158447 9.33944C0.158447 7.20228 6.38651 5.46985 14.069 5.46985C21.7514 5.46985 27.9795 7.20233 27.9795 9.33944C27.9795 11.4764 21.7514 13.209 14.069 13.209Z" fill="#F30000"/>
<path d="M14.069 13.1971C6.38651 13.1971 0.158447 11.4645 0.158447 9.32747C0.158447 7.19032 6.38651 5.45789 14.069 5.45789C21.7514 5.45789 27.9795 7.19037 27.9795 9.32747C27.9795 11.4645 21.7519 13.1971 14.069 13.1971Z" fill="#F40000"/>
<path d="M14.0685 13.1844C6.38602 13.1844 0.157959 11.4518 0.157959 9.31478C0.157959 7.17767 6.38602 5.44519 14.0685 5.44519C21.7509 5.44519 27.979 7.17767 27.979 9.31478C27.979 11.4518 21.7514 13.1844 14.0685 13.1844Z" fill="#F50000"/>
<path d="M14.0685 13.1724C6.38602 13.1724 0.157959 11.4398 0.157959 9.30282C0.157959 7.16566 6.38602 5.43323 14.0685 5.43323C21.7509 5.43323 27.979 7.16571 27.979 9.30282C27.979 11.4398 21.7509 13.1724 14.0685 13.1724Z" fill="#F60000"/>
<path d="M14.0685 13.1598C6.38602 13.1598 0.157959 11.4273 0.157959 9.29024C0.157959 7.15309 6.38602 5.42065 14.0685 5.42065C21.7509 5.42065 27.979 7.15309 27.979 9.29024C27.979 11.4273 21.7509 13.1598 14.0685 13.1598Z" fill="#F70000"/>
<path d="M14.0685 13.1479C6.38602 13.1479 0.157959 11.4153 0.157959 9.27828C0.157959 7.14113 6.38602 5.40869 14.0685 5.40869C21.7509 5.40869 27.979 7.14117 27.979 9.27828C27.979 11.4153 21.7509 13.1479 14.0685 13.1479Z" fill="#F80000"/>
<path d="M14.0677 13.1351C6.38529 13.1351 0.157227 11.4025 0.157227 9.26546C0.157227 7.12831 6.38529 5.39587 14.0677 5.39587C21.7502 5.39587 27.9782 7.12836 27.9782 9.26546C27.9782 11.4025 21.7507 13.1351 14.0677 13.1351Z" fill="#F90000"/>
<path d="M14.0677 13.123C6.38529 13.123 0.157227 11.3905 0.157227 9.2535C0.157227 7.11635 6.38529 5.38391 14.0677 5.38391C21.7502 5.38391 27.9782 7.11639 27.9782 9.2535C27.9782 11.3905 21.7502 13.123 14.0677 13.123Z" fill="#FA0000"/>
<path d="M14.0668 13.1105C6.38431 13.1105 0.15625 11.378 0.15625 9.24093C0.15625 7.10377 6.38431 5.37134 14.0668 5.37134C21.7492 5.37134 27.9773 7.10382 27.9773 9.24093C27.9773 11.378 21.7497 13.1105 14.0668 13.1105Z" fill="#FB0000"/>
<path d="M14.0668 13.0986C6.38431 13.0986 0.15625 11.366 0.15625 9.22896C0.15625 7.09181 6.38431 5.35938 14.0668 5.35938C21.7492 5.35938 27.9773 7.09186 27.9773 9.22896C27.9773 11.366 21.7497 13.0986 14.0668 13.0986Z" fill="#FC0000"/>
<path d="M14.0668 13.0863C6.38431 13.0863 0.15625 11.3538 0.15625 9.21676C0.15625 7.0796 6.38431 5.34717 14.0668 5.34717C21.7492 5.34717 27.9773 7.07965 27.9773 9.21676C27.9773 11.3538 21.7497 13.0863 14.0668 13.0863Z" fill="#FD0000"/>
<path d="M14.0665 13.0727C6.38407 13.0727 0.156006 11.3402 0.156006 9.20321C0.156006 7.06605 6.38407 5.33362 14.0665 5.33362C21.749 5.33362 27.977 7.0661 27.977 9.20321C27.9771 11.3402 21.7494 13.0727 14.0665 13.0727Z" fill="#FE0000"/>
<path d="M27.977 9.19173C27.977 11.3288 21.7494 13.0613 14.0665 13.0613C6.38407 13.0613 0.156006 11.3288 0.156006 9.19173C0.156006 7.05458 6.38407 5.32214 14.0665 5.32214C21.749 5.32214 27.977 7.05458 27.977 9.19173Z" fill="#FF0000"/>
<path d="M27.8729 9.20531C27.8729 11.1375 21.6533 12.7039 13.9813 12.7039C6.3092 12.7039 0.0895996 11.1376 0.0895996 9.20531C0.0895996 7.27323 6.30899 5.70691 13.9813 5.70691C21.6533 5.70691 27.8729 7.27315 27.8729 9.20531Z" fill="#FF9999"/>
<path d="M0.0910645 9.14525C0.0910645 7.21317 6.31047 5.64685 13.9828 5.64685C21.6548 5.64685 27.8744 7.21309 27.8744 9.14525C27.8744 11.0774 21.6548 12.6439 13.9828 12.6439C6.31067 12.6439 0.0910645 11.0775 0.0910645 9.14525Z" fill="#FF9A9A"/>
<path d="M0.0930176 9.08654C0.0930176 7.15446 6.31242 5.58813 13.9848 5.58813C21.6569 5.58813 27.8763 7.15437 27.8763 9.08654C27.8763 11.0187 21.6567 12.5851 13.9848 12.5851C6.31263 12.5851 0.0930176 11.0188 0.0930176 9.08654Z" fill="#FF9A9B"/>
<path d="M0.0949707 9.02561C0.0949707 7.09353 6.31438 5.52722 13.9867 5.52722C21.6587 5.52722 27.8783 7.09345 27.8783 9.02561C27.8783 10.9578 21.6587 12.5242 13.9867 12.5242C6.31458 12.5242 0.0949707 10.9579 0.0949707 9.02561Z" fill="#FF9B9C"/>
<path d="M0.0949707 8.9652C0.0949707 7.03312 6.31437 5.4668 13.9865 5.4668C21.6587 5.4668 27.8781 7.03304 27.8781 8.9652C27.8781 10.8974 21.6585 12.4638 13.9865 12.4638C6.31437 12.4638 0.0949707 10.8975 0.0949707 8.9652Z" fill="#FF9C9D"/>
<path d="M0.0979004 8.90453C0.0979004 6.97245 6.3173 5.40613 13.9895 5.40613C21.6616 5.40613 27.881 6.97237 27.881 8.90453C27.881 10.8367 21.6614 12.4031 13.9895 12.4031C6.3173 12.4031 0.0979004 10.8368 0.0979004 8.90453Z" fill="#FF9C9E"/>
<path d="M0.0991211 8.84582C0.0991211 6.91373 6.31852 5.34741 13.9909 5.34741C21.663 5.34741 27.8824 6.91365 27.8824 8.84582C27.8824 10.778 21.6628 12.3444 13.9909 12.3444C6.31872 12.3444 0.0991211 10.7781 0.0991211 8.84582Z" fill="#FF9D9F"/>
<path d="M0.0991211 8.78538C0.0991211 6.8533 6.31852 5.28699 13.9909 5.28699C21.663 5.28699 27.8824 6.85322 27.8824 8.78538C27.8824 10.7176 21.6628 12.284 13.9909 12.284C6.31872 12.284 0.0991211 10.7176 0.0991211 8.78538Z" fill="#FF9EA0"/>
<path d="M0.101318 8.72448C0.101318 6.7924 6.32072 5.22607 13.9931 5.22607C21.665 5.22607 27.8846 6.79231 27.8846 8.72448C27.8846 10.6567 21.665 12.2231 13.9931 12.2231C6.32093 12.2231 0.101318 10.6567 0.101318 8.72448Z" fill="#FF9FA1"/>
<path d="M0.103271 8.66613C0.103271 6.73401 6.32268 5.16772 13.995 5.16772C21.667 5.16772 27.8866 6.73396 27.8866 8.66613C27.8866 10.5983 21.667 12.1645 13.995 12.1645C6.32288 12.1646 0.103271 10.5982 0.103271 8.66613Z" fill="#FF9FA2"/>
<path d="M0.105225 8.60522C0.105225 6.67309 6.32463 5.10681 13.997 5.10681C21.6689 5.10681 27.8885 6.67305 27.8885 8.60522C27.8885 10.5374 21.6689 12.1036 13.997 12.1036C6.32483 12.1036 0.105225 10.5373 0.105225 8.60522Z" fill="#FFA0A3"/>
<path d="M0.105225 8.54478C0.105225 6.61266 6.32463 5.04639 13.997 5.04639C21.6691 5.04639 27.8885 6.61261 27.8885 8.54478C27.8885 10.477 21.6689 12.0432 13.997 12.0432C6.32483 12.0432 0.105225 10.4769 0.105225 8.54478Z" fill="#FFA1A4"/>
<path d="M0.107178 8.48632C0.107178 6.5542 6.32658 4.98792 13.9989 4.98792C21.6711 4.98792 27.8905 6.55416 27.8905 8.48632C27.8905 10.4185 21.6709 11.9847 13.9989 11.9847C6.32679 11.9847 0.107178 10.4184 0.107178 8.48632Z" fill="#FFA1A5"/>
<path d="M0.109375 8.42541C0.109375 6.49328 6.32878 4.927 14.0011 4.927C21.6733 4.927 27.8927 6.49324 27.8927 8.42541C27.8927 10.3576 21.6731 11.9238 14.0011 11.9238C6.32898 11.9238 0.109375 10.3575 0.109375 8.42541Z" fill="#FFA2A6"/>
<path d="M0.109375 8.36498C0.109375 6.43286 6.32877 4.86658 14.0009 4.86658C21.6731 4.86658 27.8927 6.43282 27.8927 8.36498C27.8927 10.2972 21.6731 11.8634 14.0009 11.8634C6.32877 11.8634 0.109375 10.297 0.109375 8.36498Z" fill="#FFA3A7"/>
<path d="M0.111572 8.30406C0.111572 6.37193 6.33097 4.80566 14.0031 4.80566C21.6753 4.80566 27.8947 6.37189 27.8947 8.30406C27.8947 10.2362 21.6751 11.8025 14.0031 11.8025C6.33097 11.8025 0.111572 10.2362 0.111572 8.30406Z" fill="#FFA3A8"/>
<path d="M0.113525 8.24572C0.113525 6.31364 6.33292 4.74731 14.0053 4.74731C21.6774 4.74731 27.8968 6.31362 27.8968 8.24572C27.8968 10.1779 21.6772 11.7441 14.0053 11.7441C6.33312 11.7442 0.113525 10.1778 0.113525 8.24572Z" fill="#FFA4A9"/>
<path d="M0.113525 8.18505C0.113525 6.25297 6.33292 4.68665 14.0053 4.68665C21.6774 4.68665 27.8968 6.25295 27.8968 8.18505C27.8968 10.1172 21.6772 11.6835 14.0053 11.6835C6.33312 11.6835 0.113525 10.1172 0.113525 8.18505Z" fill="#FFA5AA"/>
<path d="M0.115479 8.12438C0.115479 6.1923 6.33489 4.62598 14.0072 4.62598C21.6794 4.62598 27.8988 6.19228 27.8988 8.12438C27.8988 10.0566 21.6792 11.6228 14.0072 11.6228C6.33509 11.6228 0.115479 10.0565 0.115479 8.12438Z" fill="#FFA6AB"/>
<path d="M0.117432 8.0659C0.117432 6.13381 6.33684 4.5675 14.0092 4.5675C21.6811 4.5675 27.9007 6.13379 27.9007 8.0659C27.9007 9.99808 21.6811 11.5643 14.0092 11.5643C6.33704 11.5643 0.117432 9.99796 0.117432 8.0659Z" fill="#FFA6AC"/>
<path d="M0.117432 8.00536C0.117432 6.07328 6.33684 4.50696 14.0092 4.50696C21.6811 4.50696 27.9007 6.07326 27.9007 8.00536C27.9007 9.93755 21.6811 11.5038 14.0092 11.5038C6.33704 11.5038 0.117432 9.93742 0.117432 8.00536Z" fill="#FFA7AD"/>
<path d="M0.119629 7.94457C0.119629 6.01249 6.33904 4.44617 14.0114 4.44617C21.6835 4.44617 27.9029 6.01247 27.9029 7.94457C27.9029 9.87675 21.6833 11.443 14.0114 11.443C6.33924 11.443 0.119629 9.87663 0.119629 7.94457Z" fill="#FFA8AE"/>
<path d="M0.12085 7.88598C0.12085 5.95389 6.34026 4.38757 14.0126 4.38757C21.6848 4.38757 27.9042 5.95387 27.9042 7.88598C27.9042 9.81816 21.6846 11.3844 14.0126 11.3844C6.34046 11.3844 0.12085 9.81808 0.12085 7.88598Z" fill="#FFA8AF"/>
<path d="M0.123779 7.82554C0.123779 5.89346 6.34317 4.32715 14.0155 4.32715C21.6877 4.32715 27.9071 5.89344 27.9071 7.82554C27.9071 9.75772 21.6875 11.3239 14.0155 11.3239C6.34338 11.324 0.123779 9.75764 0.123779 7.82554Z" fill="#FFA9B0"/>
<path d="M0.123779 7.76464C0.123779 5.83252 6.34318 4.26624 14.0153 4.26624C21.6875 4.26624 27.9071 5.83254 27.9071 7.76464C27.9071 9.69676 21.6875 11.263 14.0153 11.263C6.34318 11.263 0.123779 9.6967 0.123779 7.76464Z" fill="#FFAAB1"/>
<path d="M0.125732 7.70629C0.125732 5.77417 6.34513 4.20789 14.0175 4.20789C21.6896 4.20789 27.9092 5.77419 27.9092 7.70629C27.9092 9.63847 21.6896 11.2047 14.0175 11.2047C6.34533 11.2047 0.125732 9.63839 0.125732 7.70629Z" fill="#FFAAB2"/>
<path d="M0.127686 7.6455C0.127686 5.71338 6.34709 4.14709 14.0194 4.14709C21.6916 4.14709 27.911 5.7134 27.911 7.6455C27.911 9.57768 21.6914 11.1439 14.0194 11.1439C6.34729 11.1439 0.127686 9.5776 0.127686 7.6455Z" fill="#FFABB3"/>
<path d="M0.127686 7.58494C0.127686 5.65282 6.34709 4.08655 14.0194 4.08655C21.6916 4.08655 27.911 5.65284 27.911 7.58494C27.911 9.51712 21.6914 11.0833 14.0194 11.0833C6.34729 11.0833 0.127686 9.51704 0.127686 7.58494Z" fill="#FFACB4"/>
<path d="M0.12915 7.52453C0.12915 5.5924 6.34856 4.02612 14.0209 4.02612C21.6931 4.02612 27.9125 5.59242 27.9125 7.52453C27.9125 9.45671 21.6929 11.0229 14.0209 11.0229C6.34876 11.0229 0.12915 9.45663 0.12915 7.52453Z" fill="#FFADB5"/>
<path d="M0.131104 7.46557C0.131104 5.53344 6.35051 3.96716 14.0229 3.96716C21.6948 3.96716 27.9144 5.53346 27.9144 7.46557C27.9144 9.39775 21.6948 10.964 14.0229 10.964C6.35071 10.964 0.131104 9.39767 0.131104 7.46557Z" fill="#FFADB6"/>
<path d="M0.131104 7.40514C0.131104 5.47302 6.35051 3.90674 14.0229 3.90674C21.6948 3.90674 27.9144 5.47304 27.9144 7.40514C27.9144 9.33733 21.6948 10.9035 14.0229 10.9035C6.35071 10.9035 0.131104 9.3372 0.131104 7.40514Z" fill="#FFAEB7"/>
<path d="M0.134033 7.34422C0.134033 5.41209 6.35344 3.84583 14.0258 3.84583C21.6979 3.84583 27.9175 5.41211 27.9175 7.34422C27.9175 9.2764 21.6979 10.8426 14.0258 10.8426C6.35364 10.8426 0.134033 9.27628 0.134033 7.34422Z" fill="#FFAFB8"/>
<path d="M0.135498 7.28588C0.135498 5.35376 6.35489 3.78748 14.0272 3.78748C21.6994 3.78748 27.9188 5.35372 27.9188 7.28588C27.9188 9.21806 21.6992 10.7843 14.0272 10.7843C6.35509 10.7843 0.135498 9.21804 0.135498 7.28588Z" fill="#FFAFB8"/>
<path d="M0.135498 7.22545C0.135498 5.29333 6.3549 3.72705 14.0271 3.72705C21.6992 3.72705 27.9188 5.29329 27.9188 7.22545C27.9188 9.15764 21.6992 10.7239 14.0271 10.7239C6.3549 10.7239 0.135498 9.15762 0.135498 7.22545Z" fill="#FFB0B9"/>
<path d="M0.137451 7.16454C0.137451 5.23242 6.35684 3.66614 14.0292 3.66614C21.7014 3.66614 27.921 5.23238 27.921 7.16454C27.921 9.09672 21.7014 10.6629 14.0292 10.6629C6.35705 10.6629 0.137451 9.0967 0.137451 7.16454Z" fill="#FFB1BA"/>
<path d="M0.139404 7.10606C0.139404 5.17393 6.35881 3.60767 14.0312 3.60767C21.7033 3.60767 27.9229 5.17389 27.9229 7.10606C27.9229 9.03824 21.7033 10.6045 14.0312 10.6045C6.35901 10.6045 0.139404 9.03822 0.139404 7.10606Z" fill="#FFB1BB"/>
<path d="M0.142334 7.04564C0.142334 5.11352 6.36174 3.54724 14.0341 3.54724C21.7062 3.54724 27.9259 5.11348 27.9259 7.04564C27.9259 8.97783 21.7062 10.544 14.0341 10.544C6.36194 10.544 0.142334 8.97781 0.142334 7.04564Z" fill="#FFB2BC"/>
<path d="M0.142334 6.98473C0.142334 5.05261 6.36174 3.48633 14.0341 3.48633C21.7062 3.48633 27.9259 5.05257 27.9259 6.98473C27.9259 8.91692 21.7062 10.4831 14.0341 10.4831C6.36194 10.4831 0.142334 8.91683 0.142334 6.98473Z" fill="#FFB3BD"/>
<path d="M0.143555 6.92431C0.143555 4.99218 6.36296 3.4259 14.0353 3.4259C21.7075 3.4259 27.9269 4.99214 27.9269 6.92431C27.9269 8.85649 21.7073 10.4227 14.0353 10.4227C6.36316 10.4227 0.143555 8.85641 0.143555 6.92431Z" fill="#FFB4BE"/>
<path d="M0.145752 6.8657C0.145752 4.93358 6.36516 3.36731 14.0375 3.36731C21.7097 3.36731 27.9291 4.93354 27.9291 6.8657C27.9291 8.79788 21.7095 10.3641 14.0375 10.3641C6.36536 10.3641 0.145752 8.79786 0.145752 6.8657Z" fill="#FFB4BF"/>
<path d="M0.145752 6.80504C0.145752 4.87292 6.36516 3.30664 14.0375 3.30664C21.7097 3.30664 27.9293 4.87288 27.9293 6.80504C27.9293 8.73717 21.7097 10.3034 14.0375 10.3034C6.36536 10.3034 0.145752 8.73721 0.145752 6.80504Z" fill="#FFB5C0"/>
<path d="M0.147705 6.74438C0.147705 4.81225 6.3671 3.24597 14.0395 3.24597C21.7116 3.24597 27.9312 4.81221 27.9312 6.74438C27.9312 8.6765 21.7116 10.2428 14.0395 10.2428C6.3673 10.2428 0.147705 8.67654 0.147705 6.74438Z" fill="#FFB6C1"/>
<path d="M0.149658 6.68566C0.149658 4.75354 6.36905 3.18726 14.0414 3.18726C21.7136 3.18726 27.9332 4.7535 27.9332 6.68566C27.9332 8.61778 21.7136 10.1841 14.0414 10.1841C6.36925 10.1841 0.149658 8.61782 0.149658 6.68566Z" fill="#FFB6C2"/>
<path d="M0.149658 6.62522C0.149658 4.6931 6.36906 3.12683 14.0412 3.12683C21.7134 3.12683 27.933 4.69306 27.933 6.62522C27.933 8.55735 21.7134 10.1236 14.0412 10.1236C6.36906 10.1236 0.149658 8.55739 0.149658 6.62522Z" fill="#FFB7C3"/>
<path d="M0.151611 6.56432C0.151611 4.6322 6.37102 3.06592 14.0434 3.06592C21.7155 3.06592 27.9351 4.63216 27.9351 6.56432C27.9351 8.49644 21.7155 10.0627 14.0434 10.0627C6.37122 10.0628 0.151611 8.49649 0.151611 6.56432Z" fill="#FFB8C4"/>
<path d="M0.153809 6.50597C0.153809 4.57385 6.37322 3.00757 14.0456 3.00757C21.7177 3.00757 27.9373 4.57381 27.9373 6.50597C27.9373 8.4381 21.7177 10.0044 14.0456 10.0044C6.37342 10.0044 0.153809 8.43814 0.153809 6.50597Z" fill="#FFB8C5"/>
<path d="M0.153809 6.44506C0.153809 4.51294 6.37322 2.94666 14.0456 2.94666C21.7177 2.94666 27.9373 4.5129 27.9373 6.44506C27.9373 8.37718 21.7177 9.94345 14.0456 9.94345C6.37342 9.94345 0.153809 8.37722 0.153809 6.44506Z" fill="#FFB9C6"/>
<path d="M0.156006 6.38462C0.156006 4.4525 6.37541 2.88623 14.0478 2.88623C21.7199 2.88623 27.9395 4.45246 27.9395 6.38462C27.9395 8.31675 21.7199 9.88303 14.0478 9.88303C6.37561 9.88303 0.156006 8.31679 0.156006 6.38462Z" fill="#FFBAC7"/>
<path d="M0.157959 6.32397C0.157959 4.39184 6.37737 2.82556 14.0497 2.82556C21.7219 2.82556 27.9415 4.39186 27.9415 6.32397C27.9415 8.25615 21.7219 9.82237 14.0497 9.82237C6.37757 9.82237 0.157959 8.25613 0.157959 6.32397Z" fill="#FFBBC8"/>
<path d="M0.159912 6.26525C0.159912 4.33313 6.37932 2.76685 14.0517 2.76685C21.7238 2.76685 27.9432 4.33315 27.9432 6.26525C27.9432 8.19743 21.7236 9.76365 14.0517 9.76365C6.37952 9.76365 0.159912 8.19741 0.159912 6.26525Z" fill="#FFBBC9"/>
<path d="M0.159912 6.20482C0.159912 4.2727 6.37932 2.70642 14.0517 2.70642C21.7238 2.70642 27.9434 4.27272 27.9434 6.20482C27.9434 8.13701 21.7238 9.70323 14.0517 9.70323C6.37952 9.70328 0.159912 8.13703 0.159912 6.20482Z" fill="#FFBCCA"/>
<path d="M0.161865 6.14428C0.161865 4.21215 6.38126 2.64587 14.0536 2.64587C21.7258 2.64587 27.9454 4.21218 27.9454 6.14428C27.9454 8.07646 21.7258 9.64267 14.0536 9.64267C6.38146 9.64272 0.161865 8.07648 0.161865 6.14428Z" fill="#FFBDCB"/>
<path d="M0.164062 6.08556C0.164062 4.15344 6.38346 2.58716 14.0558 2.58716C21.728 2.58716 27.9476 4.15346 27.9476 6.08556C27.9476 8.01775 21.728 9.58397 14.0558 9.58397C6.38366 9.58401 0.164062 8.01777 0.164062 6.08556Z" fill="#FFBDCC"/>
<path d="M0.164062 6.02465C0.164062 4.09253 6.38346 2.52625 14.0558 2.52625C21.728 2.52625 27.9476 4.09255 27.9476 6.02465C27.9476 7.95683 21.728 9.52305 14.0558 9.52305C6.38366 9.52305 0.164062 7.95685 0.164062 6.02465Z" fill="#FFBECD"/>
<path d="M0.165283 5.96447C0.165283 4.03235 6.38469 2.46606 14.057 2.46606C21.7292 2.46606 27.9488 4.03237 27.9488 5.96447C27.9488 7.89665 21.7292 9.46287 14.057 9.46287C6.38489 9.46287 0.165283 7.89667 0.165283 5.96447Z" fill="#FFBFCE"/>
<path d="M0.168213 5.90574C0.168213 3.97362 6.38762 2.40735 14.06 2.40735C21.7321 2.40735 27.9517 3.97364 27.9517 5.90574C27.9517 7.83792 21.7321 9.40414 14.06 9.40414C6.38782 9.40414 0.168213 7.8379 0.168213 5.90574Z" fill="#FFBFCF"/>
<path d="M0.168213 5.84484C0.168213 3.91272 6.38762 2.34644 14.06 2.34644C21.7321 2.34644 27.9517 3.91274 27.9517 5.84484C27.9517 7.77696 21.7321 9.34324 14.06 9.34324C6.38782 9.34324 0.168213 7.777 0.168213 5.84484Z" fill="#FFC0D0"/>
<path d="M0.170166 5.78441C0.170166 3.85229 6.38957 2.28601 14.0619 2.28601C21.7341 2.28601 27.9537 3.85231 27.9537 5.78441C27.9537 7.71654 21.7341 9.28282 14.0619 9.28282C6.38977 9.28282 0.170166 7.71658 0.170166 5.78441Z" fill="#FFC1D1"/>
<path d="M0.172119 5.72387C0.172119 3.79174 6.39153 2.22546 14.0639 2.22546C21.736 2.22546 27.9556 3.79176 27.9556 5.72387C27.9556 7.65599 21.736 9.22227 14.0639 9.22227C6.39173 9.22227 0.172119 7.65603 0.172119 5.72387Z" fill="#FFC2D2"/>
<path d="M0.173584 5.66514C0.173584 3.73302 6.39298 2.16675 14.0653 2.16675C21.7375 2.16675 27.9571 3.73304 27.9571 5.66514C27.9571 7.59726 21.7375 9.16354 14.0653 9.16354C6.39318 9.16354 0.173584 7.5973 0.173584 5.66514Z" fill="#FFC2D3"/>
<path d="M0.173584 5.60448C0.173584 3.67236 6.39298 2.10608 14.0653 2.10608C21.7375 2.10608 27.9571 3.67238 27.9571 5.60448C27.9571 7.53661 21.7375 9.10289 14.0653 9.10289C6.39318 9.10284 0.173584 7.53665 0.173584 5.60448Z" fill="#FFC3D4"/>
<path d="M0.176514 5.54381C0.176514 3.61169 6.39591 2.04541 14.0683 2.04541C21.7404 2.04541 27.96 3.61171 27.96 5.54381C27.96 7.47594 21.7404 9.04222 14.0683 9.04222C6.39611 9.04222 0.176514 7.47602 0.176514 5.54381Z" fill="#FFC4D5"/>
<path d="M0.178467 5.48534C0.178467 3.55322 6.39787 1.98694 14.0702 1.98694C21.7424 1.98694 27.962 3.55324 27.962 5.48534C27.962 7.41747 21.7424 8.98373 14.0702 8.98373C6.39808 8.98373 0.178467 7.41751 0.178467 5.48534Z" fill="#FFC4D6"/>
<path d="M27.962 5.42478C27.962 7.35691 21.7424 8.92319 14.0702 8.92319C6.39808 8.92319 0.178467 7.35695 0.178467 5.42478C0.178467 3.49266 6.39787 1.92639 14.0702 1.92639C21.7424 1.92639 27.962 3.49268 27.962 5.42478Z" fill="#FFC5D7"/>
<path d="M11.9112 3.16318C11.9112 3.60664 11.0772 3.96616 10.0485 3.96616C9.01979 3.96616 8.18579 3.60664 8.18579 3.16318C8.18579 2.71963 9.01979 2.36011 10.0485 2.36011C11.0772 2.36006 11.9112 2.71958 11.9112 3.16318Z" fill="url(#paint0_radial)"/>
<path d="M11.6015 2.37096C11.6015 2.72209 10.9142 3.0067 10.0665 3.0067C9.21875 3.0067 8.53149 2.72209 8.53149 2.37096C8.53149 2.01984 9.21875 1.73523 10.0665 1.73523C10.9142 1.73523 11.6015 2.01984 11.6015 2.37096Z" fill="url(#paint1_radial)"/>
<path d="M11.2684 1.67941C11.2684 1.95659 10.7588 2.18133 10.13 2.18133C9.50134 2.18133 8.9917 1.95659 8.9917 1.67941C8.9917 1.40218 9.50134 1.17749 10.13 1.17749C10.7588 1.17749 11.2684 1.40218 11.2684 1.67941Z" fill="url(#paint2_radial)"/>
<path d="M9.21387 1.1408C9.22718 0.255721 10.4173 -0.0846497 10.8128 0.726913C11.4721 1.87156 9.22366 2.41145 9.21387 1.1408Z" fill="url(#paint3_radial)"/>
<path d="M25.1653 4.23097C25.1652 4.67448 24.3311 5.0338 23.3025 5.03347C22.2737 5.03318 21.4398 4.67341 21.4399 4.22991C21.4401 3.78641 22.2741 3.42708 23.3029 3.42737C24.3315 3.42766 25.1655 3.78747 25.1653 4.23097Z" fill="url(#paint4_radial)"/>
<path d="M24.8559 3.43871C24.8558 3.78983 24.1685 4.07425 23.3207 4.07401C22.473 4.07377 21.7858 3.78892 21.7859 3.43779C21.786 3.08666 22.4734 2.80225 23.3211 2.80249C24.1688 2.80278 24.856 3.08758 24.8559 3.43871Z" fill="url(#paint5_radial)"/>
<path d="M24.5232 2.74689C24.5231 3.02407 24.0136 3.24866 23.3848 3.24847C22.7561 3.24833 22.2465 3.02339 22.2466 2.74621C22.2467 2.46899 22.7563 2.24444 23.3851 2.24463C24.0138 2.24482 24.5233 2.46961 24.5232 2.74689Z" fill="url(#paint6_radial)"/>
<path d="M22.468 2.2077C22.4816 1.32257 23.6717 0.982586 24.067 1.79429C24.7261 2.93914 22.4774 3.47835 22.468 2.2077Z" fill="url(#paint7_radial)"/>
<path d="M6.48395 5.4758C6.48395 5.91931 5.65 6.27883 4.62127 6.27883C3.59254 6.27883 2.75854 5.91931 2.75854 5.4758C2.75854 5.0323 3.59254 4.67273 4.62127 4.67273C5.65 4.67273 6.48395 5.0323 6.48395 5.4758Z" fill="url(#paint8_radial)"/>
<path d="M6.17375 4.68388C6.17375 5.03496 5.4865 5.31961 4.63875 5.31961C3.79096 5.31961 3.10376 5.03501 3.10376 4.68388C3.10376 4.3327 3.79101 4.0481 4.63875 4.0481C5.4865 4.0481 6.17375 4.3327 6.17375 4.68388Z" fill="url(#paint9_radial)"/>
<path d="M5.84136 3.99228C5.84136 4.26946 5.33177 4.4942 4.70303 4.4942C4.07429 4.4942 3.5647 4.26946 3.5647 3.99228C3.5647 3.71505 4.07429 3.49036 4.70303 3.49036C5.33177 3.49036 5.84136 3.71505 5.84136 3.99228Z" fill="url(#paint10_radial)"/>
<path d="M3.78687 3.45367C3.80018 2.56859 4.99027 2.22822 5.38578 3.03978C6.04519 4.18443 3.79666 4.72431 3.78687 3.45367Z" fill="url(#paint11_radial)"/>
<path d="M21.6835 6.81731C21.6604 7.26024 20.8086 7.57567 19.7813 7.52174C18.754 7.46795 17.94 7.06531 17.9631 6.62233C17.9864 6.17946 18.838 5.86398 19.8655 5.91786C20.8928 5.97174 21.7068 6.37439 21.6835 6.81731Z" fill="url(#paint12_radial)"/>
<path d="M21.415 6.01056C21.3967 6.36121 20.6955 6.60954 19.8489 6.56511C19.0023 6.52078 18.3309 6.20048 18.3492 5.84993C18.3677 5.49919 19.0688 5.25095 19.9154 5.29528C20.762 5.33971 21.4335 5.65992 21.415 6.01056Z" fill="url(#paint13_radial)"/>
<path d="M21.119 5.30238C21.1046 5.57922 20.5839 5.77695 19.956 5.7441C19.3282 5.71115 18.8311 5.46007 18.8455 5.18328C18.86 4.90644 19.3807 4.70875 20.0085 4.7416C20.6365 4.7745 21.1336 5.02558 21.119 5.30238Z" fill="url(#paint14_radial)"/>
<path d="M19.0958 4.65673C19.1553 3.77354 20.3617 3.49597 20.7141 4.32712C21.3127 5.50472 19.039 5.92613 19.0958 4.65673Z" fill="url(#paint15_radial)"/>
<path d="M18.8939 2.89633C18.8939 3.33984 18.06 3.69936 17.0312 3.69936C16.0025 3.69936 15.1685 3.33984 15.1685 2.89633C15.1685 2.45278 16.0025 2.09326 17.0312 2.09326C18.06 2.09326 18.8939 2.45278 18.8939 2.89633Z" fill="url(#paint16_radial)"/>
<path d="M18.5841 2.10417C18.5841 2.45529 17.8969 2.73995 17.0492 2.73995C16.2015 2.73995 15.5142 2.45534 15.5142 2.10417C15.5142 1.75299 16.2015 1.46838 17.0492 1.46838C17.8969 1.46838 18.5841 1.75299 18.5841 2.10417Z" fill="url(#paint17_radial)"/>
<path d="M18.251 1.41261C18.251 1.68979 17.7413 1.91453 17.1126 1.91453C16.4841 1.91453 15.9744 1.68979 15.9744 1.41261C15.9744 1.13539 16.484 0.910645 17.1126 0.910645C17.7413 0.910645 18.251 1.13539 18.251 1.41261Z" fill="url(#paint18_radial)"/>
<path d="M16.1965 0.873852C16.2098 -0.0112262 17.3998 -0.351645 17.7954 0.459967C18.4548 1.60462 16.2062 2.1445 16.1965 0.873852Z" fill="url(#paint19_radial)"/>
<path d="M17.1729 8.76087V19.0885C17.1729 19.0885 15.9753 19.0481 14.0711 19.0885L13.4775 12.4407L14.0711 5.33826L17.1729 8.76087Z" fill="#FF9999"/>
<path d="M10.969 8.76177V19.0894C10.969 19.0894 12.1665 19.049 14.0707 19.0894V5.33936L10.969 8.76177Z" fill="#FF6666"/>
<path d="M17.1729 18.7277V19.3556C17.1729 19.3556 15.9753 19.3152 14.0711 19.3556L13.4775 18.3661L14.0711 15.3052L17.1729 18.7277Z" fill="white"/>
<path d="M10.969 18.7284V19.3563C10.969 19.3563 12.1665 19.3159 14.0707 19.3563V15.306L10.969 18.7284Z" fill="white"/>
<path d="M14.0723 10.7853L17.171 14.2342V12.612L14.0788 9.1615L14.0723 10.7853H14.0723Z" fill="url(#paint20_linear)"/>
<path d="M10.9691 14.2305L10.9683 12.6235L14.0803 9.16431V10.7846L10.9691 14.2305Z" fill="url(#paint21_linear)"/>
<path d="M11.5247 18.7456H10.6785V19.535H11.5247V18.7456Z" fill="white"/>
<path d="M11.7974 18.7744H10.9512V19.5638H11.7974V18.7744Z" fill="white"/>
<path d="M17.6006 18.7217H16.7544V19.511H17.6006V18.7217Z" fill="white"/>
<defs>
<radialGradient id="paint0_radial" cx="0" cy="0" r="1" gradientUnits="userSpaceOnUse" gradientTransform="translate(10.0485 3.16309) scale(1.86266 0.80306)">
<stop offset="0.0056" stop-color="white"/>
<stop offset="0.5354" stop-color="#FFFDFD"/>
<stop offset="0.7263" stop-color="#FFF6F7"/>
<stop offset="0.8623" stop-color="#FFEBEC"/>
<stop offset="0.9715" stop-color="#FFDADC"/>
<stop offset="1" stop-color="#FFD4D7"/>
</radialGradient>
<radialGradient id="paint1_radial" cx="0" cy="0" r="1" gradientUnits="userSpaceOnUse" gradientTransform="translate(10.0679 2.36921) scale(1.53509 0.635858)">
<stop offset="0.0056" stop-color="white"/>
<stop offset="0.5354" stop-color="#FFFDFD"/>
<stop offset="0.7263" stop-color="#FFF6F7"/>
<stop offset="0.8623" stop-color="#FFEBEC"/>
<stop offset="0.9715" stop-color="#FFDADC"/>
<stop offset="1" stop-color="#FFD4D7"/>
</radialGradient>
<radialGradient id="paint2_radial" cx="0" cy="0" r="1" gradientUnits="userSpaceOnUse" gradientTransform="translate(10.1272 1.68118) scale(1.1382 0.501851)">
<stop offset="0.0056" stop-color="white"/>
<stop offset="0.5354" stop-color="#FFFDFD"/>
<stop offset="0.7263" stop-color="#FFF6F7"/>
<stop offset="0.8623" stop-color="#FFEBEC"/>
<stop offset="0.9715" stop-color="#FFDADC"/>
<stop offset="1" stop-color="#FFD4D7"/>
</radialGradient>
<radialGradient id="paint3_radial" cx="0" cy="0" r="1" gradientUnits="userSpaceOnUse" gradientTransform="translate(9.81173 0.934291) rotate(-179.965) scale(1.26163)">
<stop offset="0.0056" stop-color="white"/>
<stop offset="0.5506" stop-color="#FF0000"/>
<stop offset="0.6135" stop-color="#FC0000"/>
<stop offset="0.6637" stop-color="#F20000"/>
<stop offset="0.7095" stop-color="#E10000"/>
<stop offset="0.7527" stop-color="#C90000"/>
<stop offset="0.7941" stop-color="#AB0000"/>
<stop offset="0.8335" stop-color="#860000"/>
<stop offset="0.8427" stop-color="#7C0000"/>
</radialGradient>
<radialGradient id="paint4_radial" cx="0" cy="0" r="1" gradientUnits="userSpaceOnUse" gradientTransform="translate(23.3022 4.23049) rotate(0.0164627) scale(1.8627 0.803076)">
<stop offset="0.0056" stop-color="white"/>
<stop offset="0.5354" stop-color="#FFFDFD"/>
<stop offset="0.7263" stop-color="#FFF6F7"/>
<stop offset="0.8623" stop-color="#FFEBEC"/>
<stop offset="0.9715" stop-color="#FFDADC"/>
<stop offset="1" stop-color="#FFD4D7"/>
</radialGradient>
<radialGradient id="paint5_radial" cx="0" cy="0" r="1" gradientUnits="userSpaceOnUse" gradientTransform="translate(23.3225 3.43635) rotate(0.0164608) scale(1.53512 0.63587)">
<stop offset="0.0056" stop-color="white"/>
<stop offset="0.5354" stop-color="#FFFDFD"/>
<stop offset="0.7263" stop-color="#FFF6F7"/>
<stop offset="0.8623" stop-color="#FFEBEC"/>
<stop offset="0.9715" stop-color="#FFDADC"/>
<stop offset="1" stop-color="#FFD4D7"/>
</radialGradient>
<radialGradient id="paint6_radial" cx="0" cy="0" r="1" gradientUnits="userSpaceOnUse" gradientTransform="translate(23.3819 2.7483) rotate(0.0164638) scale(1.1382 0.501852)">
<stop offset="0.0056" stop-color="white"/>
<stop offset="0.5354" stop-color="#FFFDFD"/>
<stop offset="0.7263" stop-color="#FFF6F7"/>
<stop offset="0.8623" stop-color="#FFEBEC"/>
<stop offset="0.9715" stop-color="#FFDADC"/>
<stop offset="1" stop-color="#FFD4D7"/>
</radialGradient>
<radialGradient id="paint7_radial" cx="0" cy="0" r="1" gradientUnits="userSpaceOnUse" gradientTransform="translate(23.0675 2.00262) rotate(-179.949) scale(1.26163)">
<stop offset="0.0056" stop-color="white"/>
<stop offset="0.5506" stop-color="#FF0000"/>
<stop offset="0.6135" stop-color="#FC0000"/>
<stop offset="0.6637" stop-color="#F20000"/>
<stop offset="0.7095" stop-color="#E10000"/>
<stop offset="0.7527" stop-color="#C90000"/>
<stop offset="0.7941" stop-color="#AB0000"/>
<stop offset="0.8335" stop-color="#860000"/>
<stop offset="0.8427" stop-color="#7C0000"/>
</radialGradient>
<radialGradient id="paint8_radial" cx="0" cy="0" r="1" gradientUnits="userSpaceOnUse" gradientTransform="translate(4.62098 5.47588) scale(1.8627 0.803076)">
<stop offset="0.0056" stop-color="white"/>
<stop offset="0.5354" stop-color="#FFFDFD"/>
<stop offset="0.7263" stop-color="#FFF6F7"/>
<stop offset="0.8623" stop-color="#FFEBEC"/>
<stop offset="0.9715" stop-color="#FFDADC"/>
<stop offset="1" stop-color="#FFD4D7"/>
</radialGradient>
<radialGradient id="paint9_radial" cx="0" cy="0" r="1" gradientUnits="userSpaceOnUse" gradientTransform="translate(4.64028 4.68269) scale(1.53509 0.635858)">
<stop offset="0.0056" stop-color="white"/>
<stop offset="0.5354" stop-color="#FFFDFD"/>
<stop offset="0.7263" stop-color="#FFF6F7"/>
<stop offset="0.8623" stop-color="#FFEBEC"/>
<stop offset="0.9715" stop-color="#FFDADC"/>
<stop offset="1" stop-color="#FFD4D7"/>
</radialGradient>
<radialGradient id="paint10_radial" cx="0" cy="0" r="1" gradientUnits="userSpaceOnUse" gradientTransform="translate(4.70113 3.9939) scale(1.13822 0.501862)">
<stop offset="0.0056" stop-color="white"/>
<stop offset="0.5354" stop-color="#FFFDFD"/>
<stop offset="0.7263" stop-color="#FFF6F7"/>
<stop offset="0.8623" stop-color="#FFEBEC"/>
<stop offset="0.9715" stop-color="#FFDADC"/>
<stop offset="1" stop-color="#FFD4D7"/>
</radialGradient>
<radialGradient id="paint11_radial" cx="0" cy="0" r="1" gradientUnits="userSpaceOnUse" gradientTransform="translate(4.38428 3.24679) rotate(-179.965) scale(1.26163)">
<stop offset="0.0056" stop-color="white"/>
<stop offset="0.5506" stop-color="#FF0000"/>
<stop offset="0.6135" stop-color="#FC0000"/>
<stop offset="0.6637" stop-color="#F20000"/>
<stop offset="0.7095" stop-color="#E10000"/>
<stop offset="0.7527" stop-color="#C90000"/>
<stop offset="0.7941" stop-color="#AB0000"/>
<stop offset="0.8335" stop-color="#860000"/>
<stop offset="0.8427" stop-color="#7C0000"/>
</radialGradient>
<radialGradient id="paint12_radial" cx="0" cy="0" r="1" gradientUnits="userSpaceOnUse" gradientTransform="translate(19.824 6.7194) rotate(2.997) scale(1.86277 0.802938)">
<stop offset="0.0056" stop-color="white"/>
<stop offset="0.5354" stop-color="#FFFDFD"/>
<stop offset="0.7263" stop-color="#FFF6F7"/>
<stop offset="0.8623" stop-color="#FFEBEC"/>
<stop offset="0.9715" stop-color="#FFDADC"/>
<stop offset="1" stop-color="#FFD4D7"/>
</radialGradient>
<radialGradient id="paint13_radial" cx="0" cy="0" r="1" gradientUnits="userSpaceOnUse" gradientTransform="translate(19.8823 5.92968) rotate(2.9989) scale(1.53502 0.635761)">
<stop offset="0.0056" stop-color="white"/>
<stop offset="0.5354" stop-color="#FFFDFD"/>
<stop offset="0.7263" stop-color="#FFF6F7"/>
<stop offset="0.8623" stop-color="#FFEBEC"/>
<stop offset="0.9715" stop-color="#FFDADC"/>
<stop offset="1" stop-color="#FFD4D7"/>
</radialGradient>
<radialGradient id="paint14_radial" cx="0" cy="0" r="1" gradientUnits="userSpaceOnUse" gradientTransform="translate(19.9848 5.24441) rotate(2.99923) scale(1.13834 0.501832)">
<stop offset="0.0056" stop-color="white"/>
<stop offset="0.5354" stop-color="#FFFDFD"/>
<stop offset="0.7263" stop-color="#FFF6F7"/>
<stop offset="0.8623" stop-color="#FFEBEC"/>
<stop offset="0.9715" stop-color="#FFDADC"/>
<stop offset="1" stop-color="#FFD4D7"/>
</radialGradient>
<radialGradient id="paint15_radial" cx="0" cy="0" r="1" gradientUnits="userSpaceOnUse" gradientTransform="translate(19.7021 4.4812) rotate(-176.968) scale(1.26163)">
<stop offset="0.0056" stop-color="white"/>
<stop offset="0.5506" stop-color="#FF0000"/>
<stop offset="0.6135" stop-color="#FC0000"/>
<stop offset="0.6637" stop-color="#F20000"/>
<stop offset="0.7095" stop-color="#E10000"/>
<stop offset="0.7527" stop-color="#C90000"/>
<stop offset="0.7941" stop-color="#AB0000"/>
<stop offset="0.8335" stop-color="#860000"/>
<stop offset="0.8427" stop-color="#7C0000"/>
</radialGradient>
<radialGradient id="paint16_radial" cx="0" cy="0" r="1" gradientUnits="userSpaceOnUse" gradientTransform="translate(17.0311 2.8962) scale(1.8627 0.803076)">
<stop offset="0.0056" stop-color="white"/>
<stop offset="0.5354" stop-color="#FFFDFD"/>
<stop offset="0.7263" stop-color="#FFF6F7"/>
<stop offset="0.8623" stop-color="#FFEBEC"/>
<stop offset="0.9715" stop-color="#FFDADC"/>
<stop offset="1" stop-color="#FFD4D7"/>
</radialGradient>
<radialGradient id="paint17_radial" cx="0" cy="0" r="1" gradientUnits="userSpaceOnUse" gradientTransform="translate(17.051 2.10249) scale(1.53512 0.63587)">
<stop offset="0.0056" stop-color="white"/>
<stop offset="0.5354" stop-color="#FFFDFD"/>
<stop offset="0.7263" stop-color="#FFF6F7"/>
<stop offset="0.8623" stop-color="#FFEBEC"/>
<stop offset="0.9715" stop-color="#FFDADC"/>
<stop offset="1" stop-color="#FFD4D7"/>
</radialGradient>
<radialGradient id="paint18_radial" cx="0" cy="0" r="1" gradientUnits="userSpaceOnUse" gradientTransform="translate(17.1107 1.41445) scale(1.13822 0.501861)">
<stop offset="0.0056" stop-color="white"/>
<stop offset="0.5354" stop-color="#FFFDFD"/>
<stop offset="0.7263" stop-color="#FFF6F7"/>
<stop offset="0.8623" stop-color="#FFEBEC"/>
<stop offset="0.9715" stop-color="#FFDADC"/>
<stop offset="1" stop-color="#FFD4D7"/>
</radialGradient>
<radialGradient id="paint19_radial" cx="0" cy="0" r="1" gradientUnits="userSpaceOnUse" gradientTransform="translate(16.7936 0.667358) rotate(-179.965) scale(1.26163)">
<stop offset="0.0056" stop-color="white"/>
<stop offset="0.5506" stop-color="#FF0000"/>
<stop offset="0.6135" stop-color="#FC0000"/>
<stop offset="0.6637" stop-color="#F20000"/>
<stop offset="0.7095" stop-color="#E10000"/>
<stop offset="0.7527" stop-color="#C90000"/>
<stop offset="0.7941" stop-color="#AB0000"/>
<stop offset="0.8335" stop-color="#860000"/>
<stop offset="0.8427" stop-color="#7C0000"/>
</radialGradient>
<linearGradient id="paint20_linear" x1="15.1167" y1="12.2102" x2="16.4291" y2="10.749" gradientUnits="userSpaceOnUse">
<stop stop-color="#830000"/>
<stop offset="0.1406" stop-color="#A80000"/>
<stop offset="0.2921" stop-color="#C70000"/>
<stop offset="0.4499" stop-color="#E00000"/>
<stop offset="0.6148" stop-color="#F10000"/>
<stop offset="0.7914" stop-color="#FC0000"/>
<stop offset="1" stop-color="#FF0000"/>
</linearGradient>
<linearGradient id="paint21_linear" x1="13.0598" y1="12.1802" x2="11.4352" y2="10.4031" gradientUnits="userSpaceOnUse">
<stop stop-color="#420000"/>
<stop offset="0.0822" stop-color="#5E0000"/>
<stop offset="0.2161" stop-color="#840000"/>
<stop offset="0.3554" stop-color="#A40000"/>
<stop offset="0.4991" stop-color="#BD0000"/>
<stop offset="0.6493" stop-color="#CE0000"/>
<stop offset="0.8101" stop-color="#D90000"/>
<stop offset="1" stop-color="#DC0000"/>
</linearGradient>
</defs>
</svg>
