<svg width="29" height="32" viewBox="0 0 29 32" fill="none" xmlns="http://www.w3.org/2000/svg">
<path d="M3.95087 2.22876H25.6724C27.3085 2.22876 28.6233 3.54483 28.6233 5.17963V26.9012C28.6233 28.5354 27.3085 29.8521 25.6724 29.8521H3.95087C2.31589 29.8521 1 28.5354 1 26.9012V5.17963C1 3.54465 2.31607 2.22839 3.95068 2.22839L3.95087 2.22876Z" fill="white"/>
<path d="M14.1262 8.6673C12.8336 8.6119 11.5594 8.51957 10.3407 8.35338C9.17731 8.20565 8.1061 8.02099 7.14605 7.78093L6.07502 7.48547C5.52104 9.03662 4.76394 10.717 3.8037 12.5636C2.19716 15.6844 1.82784 19.5242 2.71421 24.0484C3.13893 26.172 3.69291 28.0186 4.37615 29.5697C4.41308 29.6436 4.45001 29.699 4.46848 29.7728H15.9359C15.9545 29.2004 15.8435 28.4987 15.6035 27.6308C15.4002 26.9106 15.1232 26.2107 14.791 25.5072C14.2555 24.4362 13.5538 23.4021 12.6859 22.368V22.3126C12.6859 22.2572 12.7597 22.2018 12.9074 22.1094C13.2214 21.9432 13.4801 21.7955 13.7015 21.6478C14.0154 21.4816 15.7451 19.9895 15.9852 19.7864C16.0432 19.3506 16.1883 17.2928 16.1883 17.0527C16.2068 16.3695 16.1883 14.2643 16.1698 13.8766C16.1514 13.4518 15.8877 9.55256 15.7769 8.74005C15.7398 8.51883 14.1631 8.88889 14.1262 8.6673Z" fill="#CCCCCC"/>
<path d="M18.5018 22.0188V22.0003C18.1694 21.7787 17.7631 21.4463 17.3015 21.0031C17.283 21.0031 17.2646 20.9847 17.2646 20.9662C17.1168 20.8369 16.9691 20.6707 16.8029 20.523C16.3603 20.0429 16.0648 19.7659 15.9725 19.6736C15.5662 20.1906 15.1046 20.6707 14.5506 21.0955H14.5321C14.2921 21.2986 14.0151 21.4833 13.7012 21.6494C13.4796 21.7972 13.2211 21.9449 12.9071 22.1111C12.7594 22.2034 12.6855 22.2588 12.6855 22.3142V22.3696C13.5534 23.4037 14.2552 24.4378 14.7907 25.5088L15.5847 25.7489C16.2126 25.8412 16.7475 25.712 17.2276 25.3611C17.2092 24.5671 17.4308 23.7915 17.8555 23.0529C18.2802 22.4804 18.5018 22.148 18.5018 22.0188Z" fill="#999999"/>
<path d="M27.3295 22.0926C26.9417 20.6504 26.4062 18.4547 25.7414 15.5548C25.5383 14.8716 25.0212 13.5974 24.1533 11.7508C23.2854 9.88578 22.8422 8.94402 22.8238 8.87015L22.4729 8.24231C20.6078 8.48237 17.5794 8.74625 15.8242 8.78318C15.8979 9.33716 16.0009 10.2688 16.0565 10.8412C16.0857 11.4223 16.1751 12.3685 16.2307 13.218C16.2122 13.8466 16.1989 15.8926 16.1802 16.2957C16.2092 16.8685 16.0984 18.7299 15.9878 19.7455C15.9878 19.764 18.1703 21.7786 18.5027 21.9984V22.0168C18.5027 22.1479 18.2811 22.4785 17.8564 23.0509C17.4317 23.7896 17.2101 24.567 17.2286 25.3592C17.2286 25.5254 17.2286 25.6934 17.2489 25.8596C17.4335 27.4108 17.6717 28.7218 17.9875 29.7726H25.6509C26.4819 29.7726 27.1651 29.4771 27.7376 28.9065C28.1438 28.4984 28.4023 28.0571 28.5316 27.54C28.4947 27.3904 28.4393 27.1707 28.3839 26.8752C28.2915 26.4321 28.1623 25.8412 28.033 25.1025C27.7542 23.6806 27.5141 22.6816 27.3295 22.0926Z" fill="#CCCCCC"/>
<path d="M16.6006 8.68558C16.7483 8.66711 16.896 8.66711 17.0438 8.66711C18.798 8.63018 20.6077 8.48245 22.4728 8.2424L22.6759 8.22393C22.6205 7.91001 22.5836 7.54069 22.5282 7.11597C22.5282 7.06057 22.5282 6.98671 22.5097 6.93131H22.4912C19.8875 7.61455 16.4159 7.72535 12.1135 7.24523C10.7655 7.07904 9.39902 6.87591 8.03253 6.63585L6.44427 6.30347V6.32193C6.33348 6.69125 6.20421 7.0975 6.07495 7.48529L7.14598 7.78075C8.10621 8.0208 9.17724 8.20546 10.3406 8.35319C11.5594 8.51939 12.8335 8.61172 14.1261 8.66711C14.939 8.68558 15.7517 8.68558 16.6006 8.68558Z" fill="#999999"/>
<path d="M3.95087 2.22876H25.6724C27.3085 2.22876 28.6233 3.54483 28.6233 5.17963V26.9012C28.6233 28.5354 27.3085 29.8521 25.6724 29.8521H3.95087C2.31589 29.8521 1 28.5354 1 26.9012V5.17963C1 3.54465 2.31607 2.22839 3.95068 2.22839L3.95087 2.22876Z" stroke="black" stroke-width="0.5" stroke-miterlimit="10"/>
<path d="M6.41227 6.38438C6.41227 6.38438 16.2932 8.68081 22.4867 7.01075M7.10844 2.06906C7.10844 2.06906 7.73462 5.13073 3.83793 12.6458C-0.0587706 20.1613 4.55237 30 4.55237 30L7.10844 2.06906ZM22.9043 2C22.9043 2 22.9726 3.73968 22.6254 4.92261C22.2783 6.10555 22.6956 8.47141 22.8341 8.95854C22.9726 9.44568 25.2698 13.8989 25.7573 15.6386C26.1746 17.4479 26.9391 20.6494 27.3564 22.1802C27.7756 23.5024 28.4016 27.0497 28.4699 27.6074L22.9043 2Z" stroke="black" stroke-width="0.5" stroke-miterlimit="10"/>
<path d="M6.0647 7.56641C6.0647 7.56641 12.0488 9.65399 22.4871 8.33182" stroke="black" stroke-width="0.5" stroke-miterlimit="10"/>
<path d="M14.8092 25.5884C14.8092 25.5884 16.1545 26.2846 17.1985 25.4499M15.9456 29.9722C15.9456 29.9722 16.1545 26.4932 12.6753 22.3882L15.9456 29.9722ZM12.7207 22.4492C12.4652 22.1833 14.5527 21.7696 16.0834 19.6128L12.7207 22.4492ZM15.9297 19.7014C15.9896 19.6386 17.3814 21.3449 18.565 22.1094L15.9297 19.7014ZM18.5041 22.0632C18.7257 22.1851 16.9899 23.5017 17.2687 25.9374C17.5457 28.3712 18.0332 29.9722 18.0332 29.9722L18.5041 22.0632Z" stroke="black" stroke-width="0.5" stroke-miterlimit="10"/>
<path d="M15.9473 19.6663C15.9473 19.6663 16.6149 14.3206 15.802 8.82935" stroke="black" stroke-width="0.5"/>
</svg>
